<?xml version="1.0" encoding="UTF-8"?>
<svg id="Layer_1" xmlns="http://www.w3.org/2000/svg" version="1.1" viewBox="0 0 524 524">
  <!-- Generator: Adobe Illustrator 29.3.0, SVG Export Plug-In . SVG Version: 2.1.0 Build 146)  -->
  <defs>
    <style>
      .st0 {
        fill: #adefcb;
      }

      .st1 {
        fill: #b2c0d0;
      }

      .st2 {
        fill: #5b90b4;
      }

      .st3 {
        fill: #080f1a;
      }

      .st4 {
        fill: #faf9f8;
      }

      .st5 {
        fill: #070e18;
      }

      .st6 {
        fill: #060e1b;
      }

      .st7 {
        fill: #060f1a;
      }

      .st8 {
        fill: #b5c3d1;
      }

      .st9 {
        fill: #b4c4d3;
      }

      .st10 {
        fill: #d0ddeb;
      }

      .st11 {
        fill: #040c18;
      }

      .st12 {
        fill: #bdd2e1;
      }

      .st13 {
        fill: #0b101d;
      }

      .st14 {
        fill: #022337;
      }

      .st15 {
        fill: #060d17;
      }

      .st16 {
        fill: #060e18;
      }

      .st17 {
        fill: #d2dfec;
      }

      .st18 {
        fill: #000613;
      }

      .st19 {
        fill: #bbd3e2;
      }

      .st20 {
        fill: #000615;
      }

      .st21 {
        fill: #0e1620;
      }

      .st22 {
        fill: #050e1a;
      }

      .st23 {
        fill: #07101a;
      }

      .st24 {
        fill: #8ee5ae;
      }

      .st25 {
        fill: #e9f1f9;
      }

      .st26 {
        fill: #c5d0da;
      }

      .st27 {
        fill: #fbf9f8;
      }

      .st28 {
        fill: #b3c2d1;
      }

      .st29 {
        fill: #050d16;
      }

      .st30 {
        fill: #c2cdda;
      }

      .st31 {
        fill: #bbc9d7;
      }

      .st32 {
        fill: #040b17;
      }

      .st33 {
        fill: #faf8f7;
      }

      .st34 {
        fill: #050c17;
      }

      .st35 {
        fill: #d1e1eb;
      }

      .st36 {
        fill: #7aa9c9;
      }

      .st37 {
        fill: #020a15;
      }

      .st38 {
        fill: #09111c;
      }

      .st39 {
        fill: #c1ccd9;
      }

      .st40 {
        fill: #060e1a;
      }

      .st41 {
        fill: #dfedf9;
      }

      .st42 {
        fill: #09111e;
      }

      .st43 {
        fill: #5b9cc2;
      }

      .st44 {
        fill: #e5f0f6;
      }

      .st45 {
        fill: #040a14;
      }

      .st46 {
        fill: #e3edf4;
      }

      .st47 {
        fill: #050d17;
      }

      .st48 {
        fill: #78b8dc;
      }

      .st49 {
        fill: #08101b;
      }

      .st50 {
        fill: #012337;
      }

      .st51 {
        fill: #c5d2e0;
      }

      .st52 {
        fill: #07101b;
      }

      .st53 {
        fill: #e1edf6;
      }

      .st54 {
        fill: #b2c2d1;
      }

      .st55 {
        fill: #d5e0e8;
      }

      .st56 {
        fill: #0b111e;
      }

      .st57 {
        fill: #fbf9f9;
      }

      .st58 {
        fill: #060f1b;
      }

      .st59 {
        fill: #f8f8f8;
      }

      .st60 {
        fill: #07101c;
      }

      .st61 {
        fill: #2a6990;
      }

      .st62 {
        fill: #050e18;
      }

      .st63 {
        fill: #060d1a;
      }

      .st64 {
        fill: #f4f7f4;
      }

      .st65 {
        fill: #d0ddea;
      }

      .st66 {
        fill: #022236;
      }

      .st67 {
        fill: #0b131f;
      }

      .st68 {
        fill: #dfeff8;
      }

      .st69 {
        fill: #abe7ca;
      }

      .st70 {
        fill: #b3ead3;
      }

      .st71 {
        fill: #08111c;
      }

      .st72 {
        fill: #8abedf;
      }

      .st73 {
        fill: #060c16;
      }

      .st74 {
        fill: #82c6ee;
      }

      .st75 {
        fill: #bfcbd8;
      }

      .st76 {
        fill: #020611;
      }

      .st77 {
        fill: #030b16;
      }

      .st78 {
        fill: #0d3349;
      }

      .st79 {
        fill: #060e19;
      }

      .st80 {
        fill: #a9bcc8;
      }

      .st81 {
        fill: #030915;
      }

      .st82 {
        fill: #faf8f8;
      }

      .st83 {
        fill: #b3c3d1;
      }

      .st84 {
        fill: #e4edf5;
      }

      .st85 {
        fill: #050d18;
      }

      .st86 {
        fill: #5cca8d;
      }

      .st87 {
        fill: #4c8cb2;
      }

      .st88 {
        fill: #020813;
      }

      .st89 {
        fill: #cedde7;
      }

      .st90 {
        fill: #d5e5f0;
      }

      .st91 {
        fill: #bac7d6;
      }

      .st92 {
        fill: #0b141e;
      }

      .st93 {
        fill: #e3edf3;
      }

      .st94 {
        fill: #37789f;
      }

      .st95 {
        fill: #060d19;
      }

      .st96 {
        fill: #050c16;
      }

      .st97 {
        fill: #c5cfdc;
      }
    </style>
  </defs>
  <path class="st50" d="M275,28c29.9,12.6,55.1,37.7,67,68,12.3,35.2,10,71.7-7,105-5.6,9.5-13.1,17.5-20,26l38.5,21.7,17.9-14.7c4.1-16.9,10.3-31.5,30-30.9,3.1,0,7.6,3.1,9.5-1,.3-.2.5-.4.5-.7.7-3.6,4.6-24.8,4-26.4-.3-.8-5.3-2.4-6.5-1.9-14.8-6.8-27.2-17.9-34-33-6.5-19-6.6-37,0-56,6.2-14.1,18.1-26.4,32-33,18.2-6.6,35.4-6.7,54-1,16.6,6.8,30.5,22,36,39,4.4,19.8,3,38.3-6,57-11.1,19.2-30.6,30.8-52.9,32.1l-5.1,32.9c11.1-1,20.5,6.3,25,16,4.5,13.8,3.5,27.4-1,41-2.3,5.1-6.6,11-11,14.5s-9.4,4.4-12,7c-2.7,2.6-6.1,9.4-9,13-11.6,14.1-27.1,27.2-44,34.5-22,7.9-43.2,7.9-65,1-2.3,10.9-4.9,23.7-2.6,34.9,10.3,26.5,9.7,57.7,4.6,84.1.7.1,10.7,7.3,12,8.5,8.6,7.5,14.3,18.8,13,30.5,7,.2,14.4.6,21,3,5.5,2.8,3.8,3.5-1.1,5.3-6.3,2.3-19.7,3.2-26.3,3.4-79.8,3.1-160.3,3-239.7.5-12.4-.4-25.2-1-37.2-3.2-11.9-2.2-6.3-6.6,2.6-7.4l25-2.2c0,0-1.2,1.2-.3-.5,0-.3,0-.7,0-1-.2-22.5,7.6-44.6,16-65-.2-.1-.7.1-1,0-12,1.7-22.8,0-34-5-20.5-12.4-21.2-31.4-20-53.3-4.7-2.6-8.8-5.3-12-9.7-3-5.4-5.5-10.9-5-17.8,2.1-42.9,5.1-85.9,8.4-128.8,1.1-4.8,2.5-9.9,4.6-14.4,3.3-5,10.4-10.8,16-13,2.2,0,4.4-.4,6.5-1,13.6-1.1,28.7-1.1,42.5,0-12.8-.6-25.8-1-39-1l38-1c-1.3-1.9-4.1-2.8-6-4.5s-4.4-4.2-6-6.5c-7.8-16.6-7.5-38.2,2-54,5.3-6.9,4.1-8.7,6.7-16.8,11-33.2,33.1-59,65.3-73.2,34.5-13.3,70.3-13.8,105-1Z"/>
  <g>
    <path class="st37" d="M87,495c0,.2,1.3.2,1,1-9,2.4-25.1.3-33.3,4.2-5.2,2.5,6.6,4.3,8.1,4.5,27.8,4.9,60.4,2.7,88.8,3.2,62.7,1.1,134.9,4.7,196.9-2,5.7-.6,14-1.3,18.5-4.5l-3.6-1.4.7-1.1c1.3.5,2.7.7,4,1,3.1,4.7-11.9,6.5-14.6,6.9-14.4,2-28.6,1.6-42.9,2.1-64.9,2.3-131,2.1-195.9,0-10-.3-55.9-.1-61.6-5.4s-1.4-1.8-1-3c1.2-3.8,30-5.5,35-5.5Z"/>
    <path class="st47" d="M36,361c-6.8-9-6.5-16.7-6-27.5.9-23.8,4.3-49,6-73,1.2-16.6-.8-47.2,8-60.5l-4,14.5c-1.4,45.6-8.4,91.4-7.7,136.7l3.7,9.8Z"/>
    <path class="st96" d="M318,457c0,0-.3,1.2-1,1,4.5-23.1,5.6-46.1.7-69.2-1.3-6.2-5.2-14.4-5.8-20.2-.6-6,1-21.7,2.1-28.1s.8-1.7,2-2.5c.4,9.1-3.6,20.8-3,29.5.4,5.7,5.2,16.6,6.5,23.5,4.2,21,3.8,45.2-1.5,66Z"/>
    <path class="st79" d="M275,28c-1,2.1-3.1.3-4.4-.1-33.9-12-62.6-11.6-96.3,1-1.3.5-3.4,2.2-4.4.1,32.9-14.6,71.9-15,105-1Z"/>
    <path class="st71" d="M381,337c-20.9,9-43.9,9.6-65,1,.8-.5.5-1.1,2.2-.8,4.5.5,11,4,16.4,4.7,14.2,1.9,28.6,0,42-4.8s3.4-2.2,4.4-.1Z"/>
    <path class="st52" d="M96,173c-9.6-13.9-8.3-40.6,2-54l-4,9.5c-3.5,9.8-1.5,20.7-1.9,31l3.9,13.6Z"/>
    <path class="st49" d="M87,494c-1.7-20.7,6.9-46.6,16-65,1.2.9,1.2.3.6,2.1-1.7,4.9-5.2,10.6-7,16-3.2,9.5-7.2,24.7-8.4,34.6s1,8.8-1.1,12.4Z"/>
    <path class="st38" d="M457,268l3-17.5c-.3-3.9.4-8.2,0-12-.4-4-3.4-8-2-11.5,6,12.9,4.7,28.2-1,41Z"/>
    <path class="st76" d="M70,185c10.8-.7,24.6-.5,35.5,0,1.2,0,3.7-.8,3.5,1h-42.5c-1.1,0-5,3.7-6.5,1,3.7-1.4,6-1.7,10-2Z"/>
    <path class="st49" d="M102,429c-11.3,3.2-24,1-34-5l18.6,4.9c5.7,1.2,10.2-1.9,15.4.1Z"/>
    <path class="st92" d="M409,173c.9-2.3,6.9,1,7,1.7,1.5,6-4.9,21.7-4,28.8l-1-1.5,4-27c-2.1-.4-4.1-1.1-6-2Z"/>
    <path class="st33" d="M224,412c0,.9,3.4,6.9,4,7,4.1,8,6.2,19.8,6.2,29.1l-5.2,44.9h-36c2.2-5.5.7-13.4-1.8-18.7s-5.2-6.4-5-7.6,10.2-17.3,11.9-20.7c4.7-11.6,9.6-23.1,14.8-34.4,1.3-1.2,10.6-1.6,11.2.4Z"/>
    <path class="st4" d="M302,445c.9-.3,1.5-1.5,3-1,1.6,5.8-6.1,15.9-4.8,20.3s14.4,8.6,17.8,11.3c6.5,5.2,10.3,10.5,6.1,18.4l-.5,1c-20.1,1-40.6.6-61.5-1l-15-1c-1.5.8-2.5-.5-2-2,0-3.7,0-7.3,0-11-.9-.3-.9-.6,0-1,4.7-1.3,3.1,9.7,2.5,13,1.4-3.3,12.3-3,14.5,0-.9-.2-1.9-.5-2.7-1.1-3.9-2.6-2.4-32.4-1.4-38l2.1-1.9c14.2-.2,28.3-2.8,42-6Z"/>
    <path class="st82" d="M83,336c7-1.8,30.7,2.5,35.1,7.6-.5,5.6-.8,11.1-1.1,16.6,4.3,5.9,12.6,19,9,26.3-1.9,3.8-6.7,4.4-6-.6-1.1-1.4-1.2-1.9-3-3-9.3-1.7-11,0-11.1,8.7,1.2,5.5,1.5,10.6,1.1,15.3,0,.6.1,1.5,0,2-3.8.5-12.4-3.4-15.6-6.1-17.4-15.1-17.2-38.4-16.1-59.5-.4-1.9-.8-3.7-1.3-5.4,2.1-.6,7.2-1.9,9-2Z"/>
    <path class="st82" d="M173,453c1.4,0,3.8-1.8,5-.5-2.9,2.3-4.5,6.5-7.1,8.9s-7.4,2.6-7,7,11.7,7,13.6,13.5-.2,6.8-2.5,11c0,.4,0,.7,0,.8-2,1.8-43.2,1.5-50.5,1.2s-2.3-.5-3.4-1.1c-.9-.3-2.3-1-2.9-1.7-6.2-7.5,3.4-33.8,6.5-42.3l2.4-1c15,3.2,30.4,4,46,4Z"/>
    <path class="st9" d="M142,230l-18,15.5c-20.8,20.5-40,44.2-44.9,73.9l-5.1,1.6-6.6,1.9c-1.4-.2-1.6-1.8-.4-4.9.9-6,1.9-12,3-18,7.7-25.5,28.3-55.3,51.1-69.4,2.1-1.3,10.8-6.1,12.7-6.4,4.8-.8,5.6,3.7,8.2,5.8Z"/>
    <path class="st75" d="M74,338c1.2,1.2,2.8.2,3.1,2.4,1,7.4-.7,17.2,0,25.1,1,13,5.6,28.5,16.5,36.5s9.7,3.4,13.5,7c-.4,1.2-1.1,1.4-2,2-10.3,3.7-21,3.7-31-1-3.7-2.5-7.4-9.9-8-10-.9-.3-.9-.6,0-1-1-18.4-1.2-36.9-.5-55.4l1.5-2.6c2.8-1.5,3.6-2.1,7-3Z"/>
    <path class="st27" d="M401,285c-5.3,6.7-11.6,12.7-18.8,18.1h-2.2c-10.2-8.3-20-24.4-19.8-37.8,0-2.3,11.2-10.4,13.7-12.3.8,7.6,7,16.1,13.1,20.4s5.8,2.4,7.9,4.1c1.8,1.5,4.1,5.7,6.1,7.4Z"/>
    <path class="st57" d="M444,232c5.6,7.2,4.2,21.2,0,29-.4,1-3.2,5-4,6-6.7,3.8-13.2.9-18.5-4.1-.7,2.2-1.9,3.2-3.5,3.1.5-13.5,2.5-26.8,6-40,6.3-1.5,16.5,0,20,6Z"/>
    <path class="st30" d="M364,309c3.2,3.3,8.2,7.4,12,10,3.5,3.1-7.6,5.9-11,6.7-14.4,3.6-34.1,3.4-46.4-5.1l-.6-6.6c-1.5-1.3-1.2-7.2,1-7,0,2,0,4,0,6l1-7c12.5,3.4,26.5,7.7,39.5,5s3.5-.1,4.5-2Z"/>
    <path class="st87" d="M54,243c8.7,0,17.3.3,26,.9l1,1.1c-.5,1.9-7.3,9.8-9,12.5-10.1,15.9-16.6,32.1-21,50.5-1.2-3.4-1.8-7-2-11,.3-13.8,3-27.7,4-41.5s-.9-11.9,1-12.5Z"/>
    <path class="st4" d="M392.3,221.3c6-5.8,14.7.2,15.6,7.2s-4.1,30.1-6,31.9c-4.8,4.7-10.7-3.4-12.5-7.5-3.5-8.1-3.9-25.2,2.8-31.7Z"/>
    <path class="st43" d="M84,202c.8.3,1.9.7,1.9,1.3,0,2.4-1.2,21.5-1.8,22.4s-1.3,1.1-2.1,1.3c-8.9.6-18.1.8-27.5.5.2-2.9,0-5.7-.5-8.5.6-6.3,5.1-15.9,12-17,6.1-.5,12.1-.5,18,0Z"/>
    <path class="st54" d="M125,448c1-.9,2.2-.4,2,1-4,13.4-13.3,31.8-6,45-.6,1.6-1.4,1.6-2,0l-13-1c-.4-.7-.7-1.1-1-2-.7-10.9.3-21.9,3-33,1.1-4,2.3-7.2,4-11,.8-.6,1.6-1.6,2.2-3,3.6,2.2,7.2,3.5,10.8,4Z"/>
    <path class="st91" d="M150,311c1.3,1.7.9,3.3.7,5.2-1.4,17.9-6.5,35.5-8.8,53.3s-.7.3-2,1.5c-1.1-4.5-7.6-13.8-8-16.6-.6-4.5,3.9-17.3,5-22.4,0-4.3,1.4-7.6,4-10,2.7-4.7,5.8-6.9,9-11Z"/>
    <path class="st61" d="M107,202c-.6,3.7-.8,7.5-.5,11.5-2.6,3-4.1,6.2-4.5,9.5-.8.6-4.4,4.9-4.7,5-3.6.8-11.1,0-15.3,0-.9-.3-.9-.6,0-1l2-25c-.4-.4,0-.7,1-1,.3,0,.7,0,1,0,7.1.4,14.1.7,21,1Z"/>
    <path class="st39" d="M401,285c.4.3.7.8,1,1l12.6,2.2c.7.1.7.9.4,1.8-2.1,3.7-17.3,20.1-20.7,20.8s-11.5-5.6-14.3-7.8c1.8-4.2,7.4-6.3,11-9.5s5.3-8.1,10-8.5Z"/>
    <path class="st83" d="M137,397c1.2,1.5.5,3,.2,4.6-1.3,9.3-2.9,19.8-5.1,29s0,2.5-2.1,3.4c-.8,1.6-3.6.6-4-1-.3-1.4-6.5-2.9-6.8-4.5s3.3-8.6,3.8-10.5c.8-1.6,1-1.8.7-.6l1.4-11.3c2.5-1.2,4.4-2.6,5.9-4.1,2-1.9,4.5-3.4,6-5Z"/>
    <path class="st94" d="M114,201c3.7,0,9,4.4,10,8-7.9,3.7-15.3,8.6-22,14-4.1-5.9,1.6-6.2,2.6-10s-2.6-7.4,2.4-11c2.1-.6,4.5-1,7-1Z"/>
    <path class="st26" d="M440,267c-4.3,5.2-9.7,9.1-16.7,6.2-2.5-1-4.4-5.1-5.3-5.2-.8-.7-.8-1.4,0-2l2.5-7c2.9,3.3,7.8,7.3,12.3,7.8s4.9-1.6,7.2.2Z"/>
    <path class="st40" d="M287,228c1.3,1.5-1,2-2,2.5-28.5,15-61.3,17.5-92.4,9.4s-5.3-.9-2.6-1.9c3.7,0,7.5.5,11.6,1.9,0,0,11.8,1,35.4,3.1,16.2-1.1,36.1-6.7,50-15Z"/>
    <path class="st58" d="M83,336l-2.5-1c6.5-1.6,34.8,2.8,38,8s-1.8,13.4-.3,18.3,2.7,2.7,3.6,4.4c3.1,5.5,10.2,21.1,1.4,24.1s-5.1-.8-3.3-3.8c.9,1.1.3,3.5,2.5,3,6.1-2.3,2.5-13.1.7-17.7s-6.8-8.9-7.1-10.8c-1-5.1,1.8-11.3,1.6-16.5-9.8-5-23.5-8.8-34.6-8Z"/>
    <path class="st5" d="M302,445c-14.3,4.7-26.9,6.4-42,6-2.1,2-5,2.4-8.7,1.3-2,7.7-3.5,16.2-4.2,24.4l-2,2.2v1l-1,11-1-9.5,5.1-32.4c7.3-.5,13.9,1.3,21.3.8s19.4-2.7,28-5c1.3-.4,3.6-2,4.5,0Z"/>
    <path class="st95" d="M229,495c-.9-.2-.9-.6,0-1,0-.3,0-.7,0-1,.6-13.9,2.9-25.4,4-38.5,1-12.4-1.2-23.8-5-35.5,0,0,.3-1.6,1-1,2.4,2.1,7.1,27.8,6,32.5l-6,44.5Z"/>
    <path class="st13" d="M247,493l15,1c13.2.2,26.4-.4,39.5,0,7,.2,15.3,2.8,22.5,0,0,.2,2.2,1.6-2.5,2.1-23.6,2.1-49.3-2.3-73.1-1-1.5,0-2.6-.4-3.6-1.5-1.6-1.7.1-2.4.1-2.5.4.9,1.1,1.6,2,2Z"/>
    <path class="st10" d="M66,399l-1.1-1.4c-1.9-18.1-2.2-36.3-.9-54.6,1.1-.5,1.9-1.5,3-2l-1,58Z"/>
    <path class="st48" d="M51,308c0,7.9-2.4,17.5-3,25.5s.3,11,0,16.5c-1.8-.9-3-5.8-3-7.5,0-10.3,2.7-22.6,3-33.5.5-2.2.8-4.5,1-7,0-1.7,0-3.3,0-5,.8,2.3,2,8.5,2,11Z"/>
    <path class="st46" d="M318,314c1.9,1.4.6,4.4,1.2,6.3.9,2.8,17.8,6.3,21.4,6.6,10.3.9,25.1-.8,34.3-5.7s.1-1.4,1.2-2.3c.8.5,2,.9,3,1,0,.3.1.9,0,1-.3.2-5.3,2.7-6,3-10.6,4.4-26,5.6-37.2,3.7-3.1-.5-15.1-3.5-16.8-5.2s-.9-6-1-8.5Z"/>
    <path class="st88" d="M175,493c0,.2,2,1.5-1.5,2-10.5,1.5-26.7-.2-38,0s-4.6,1-6.9,1.1c-7.4.2-15.5.5-22.6-1.1.1-.4,1-.9,1-1,3-1.2,8.3-.6,12,0h2c16.1,0,32.5.6,48.5,0s3.8,0,5.5-1Z"/>
    <path class="st42" d="M198,446c-2-.6,0-3,.5-4,2.2-4.5,12.6-29.8,14-31,2.4-2.2,9.1-.5,12.5-1,.3.9-1,1.9-1,2-1.4-1-10.4-.1-10.8.2-.9.5-6.6,16.7-8,19.5-2.2,4.8-4.7,9.6-7.2,14.3Z"/>
    <path class="st15" d="M173,453c-15.1,1-31.4.6-46-4s-1.2-.7-2-1c-1.9.4-4.2-.2-5-2,1-2.1,3.1-.3,4.4.1,7.2,2.5,16.7,5.1,24.3,5.7,8,.7,16.7-1.1,24.4,1.1Z"/>
    <path class="st22" d="M418,266c0,.7,0,1.3,0,2,0,0-.5.9-1,1-.9-13.6,4.1-27.6,5.2-41.3.2-1,.9-1.5,1.8-1.7-.5,12.8-6,27.5-6,40Z"/>
    <path class="st20" d="M64,343c1.1,18.4-2.3,38.2,2,56v1c0,0-.5.8-.9,1-.9-3-1.8-5.3-2.1-8.5-1.4-16,1.1-33.8,0-50,.2-1.4,1,.5,1,.5Z"/>
    <path class="st62" d="M117,383c-2.6,1.8-8.3-1.8-9.8,2.7s1.5,17,1.9,22.8l-2-1.5c.2-6.5-4.8-19.8.5-24s6.4-1.8,9.5,0Z"/>
    <path class="st51" d="M105,491c-3.6-9.5.3-22.9,3-33,1.8,1,.9,3.5.6,5-1.8,9.5-5,17.9-3.6,28Z"/>
    <path class="st55" d="M105,411c-8.2,5.6-22.9,4.4-31-1l13.5,3,17.5-2Z"/>
    <path class="st45" d="M444,232c1.5-1.3,2.2,1,2.5,2,2.8,8.3,2,17.2-.8,25.2-.2.7-.8,4.3-1.7,1.8,3.2-7.9,4.4-21.4,0-29Z"/>
    <path class="st35" d="M248,408l-6,1c-1,1.1,8.5,19.5,5,23-2.1-7.9-3.3-16.1-7-23.5,0-.5,5.4-1,7-2.5.3.7.7,1.3,1,2Z"/>
    <path class="st74" d="M54,219c2.2,1.2.4,7.4,1,8,1,1,23.4-.7,27,0v1c-9.3.1-18.7-.1-28,0,.2-3-.3-6.1,0-9Z"/>
    <path class="st18" d="M229,494c0,.3,0,.7,0,1l-36-.5,36-.5Z"/>
    <path class="st65" d="M131,402c0,0,1.2.6,0,1.4-1.6,1.2-3.6,1-4.9,3.2s-.9,8.4-2.1,11.9l-1-.6c.5-2.4.7-12.2,1.2-12.8s5.8-2.2,6.8-3.2Z"/>
    <path class="st36" d="M54,243c1.6-.5,23.6-.4,26.4,0,.9-.1.7,1.4.6,2-7.3-1.3-17.1-1.6-24.6-1s-1.2,1.6-1.5,3l-1-4Z"/>
    <path class="st2" d="M114,201c-1.2,0-4.2,1-7,1-6.8,0-14.6.9-21-1,9.3,0,18.7,0,28,0Z"/>
    <path class="st90" d="M67,318c-.4.5-.7.2-1-1,.8-5.4,2.4-11.7,4-17,1.9.9.4,3.3.1,4.6-1,4.4-1.6,9.1-3.1,13.4Z"/>
    <path class="st17" d="M120,446c1.6.7,3.3,1.4,5,2-2.7,2.9-8.3-3.5-10.5-3s-1.4,4.7-2.5,2c.5-1.1.7-2.8,1-4,.8-.6,5.6,2.4,7,3Z"/>
    <path class="st27" d="M402,286l14,1c.3,1.4-.4,2-1,3-4.2-2.5-8.9-1.1-13-4Z"/>
    <path class="st72" d="M85,201c-.1.5-.5,1-1,1-5.5.5-10.6,0-16.5.8s-1.4-.8-1.5-.8c6.1-1.7,12.7-1,19-1Z"/>
    <path class="st89" d="M67,318c.1,1.3-.1,2.7,0,4l7-1h1c-2,.3-6,2.1-8,3-.5-.2-1.4.1-2,0,1.5-2.2.7-4.8,1-7,.5.1,1,.5,1,1Z"/>
    <path class="st68" d="M141,322c-2,3.6-3.8,6.1-3,10.5l-1-.5c.8-3.7-1.5-7.7,4-10Z"/>
    <path class="st41" d="M119,494h-12c-.2-.6-.9-.8-1-1l.6-.8c4,1.6,9.1-.4,12.4,1.8Z"/>
    <path class="st87" d="M49,302c.1,2.8.6,5.2,1,8l-2-1c0-2.2-.8-5.6,1-7Z"/>
    <path class="st28" d="M260,451c-.2,13-4,29.1,2,41h-14.5c-2.3,0-1.3-8.5-1.5-10.6s-1-2.3-1-2.4c0-9.2,3.2-19.7,4-29,3.7.5,7.2.9,11,1Z"/>
    <path class="st50" d="M262,494c-5,0-10.6.8-15-1,4.8.6,10.8-1.2,15,1Z"/>
    <g>
      <path class="st4" d="M160,242c43.3,22.4,91.9,23.3,135,0,1.7-.9,6.8-4.8,8.1-4.6,10.9,7.5,23,13.1,33.9,20.6,3,0,6.9,3.4,8.3,6.2,1.8,11.3,5.3,22.3,9.7,32.8,2.1,3.7,6.1,8.9,9,12,3,3.6-4.9,4.3-7.9,4.5-12,.8-22.9-1.6-34.4-5-.9,6.8-5.1,5.6-2.8-1.6l-1-.5,1.4-24.8c2-15.1-13.8-15.4-14.3-.4-1.2,28.9-3.4,57.6-6.7,86.2l1,6.8c5.6,17.1,11.4,35.6,7.6,53.8-.3.2-1.5.8-2,1-14,6.9-32.6,9.5-48,7l-2.2-2c-1.1-8.1-4.1-15.8-7.6-23.1l.8-2.9c-1.9.1-2.4-.6-1-2,3.5-3.2,3.4-8.3-1-10-14,.1-28,.5-42,1-3.4,1.5-3.6,5-5,8-2,7.4-5,17.3-8.7,24.2-4.5,8.5-8.7,9.6-18.3,10s-29.6.8-40.7-3.5c-.6-.2-1-.9-1.3-1.6,1.4-12.6,3.7-24.9,7-37,5.4-5.9,4.8-18.6,3-26,3.2-20.2,6.5-40.2,10-60,3.4-4.3,10.9-11.4,11.1-16.5.3-7.4-4.2-9.9-11.1-8l-26.4,31.6c-2,2.9-1.4,8.1-2.6,10.9-14.1-4.9-29.3-9.6-44.6-7l-1.4-1h-1c-.9-2.2,1.5-2.9,3.4-3.1,6-35.3,34.5-66,62.2-88.4l2.4.6c5.1,4.1,12.3,8.7,18,12Z"/>
      <g>
        <path class="st32" d="M319,307c-1.7,1.3-1,4.8-1,7-2.2,9.6,10.5,12.3,17.9,13,13.4,1.2,24.3.6,37.1-3,2.5,1.1-4.5,2.7-4.7,2.8-13.9,4.1-26.2,4.7-40.3.7-2-.5-9.9-3.1-11-4-2.5-2,.7-20.7,1-25,.4-7.5.4-15.2.8-22.8-4-8.5-11.8-4.9-12.8,3.8-1.5,13.4-.9,29.2-2,43-1.2,14.2-5,32.5-5,46,0,6.1,7.6,24.4,8.9,33.1s1.7,17.1.6,25.4c-.3.6-1.1.7-1.5,1,.6-12.8,0-24.2-2.9-36.6-1.6-6.8-5.7-15.3-6.2-21.8-1.1-14.3,3.8-38.7,5-54.1,1-12.4.2-26.9,2.1-38.9,1.1-7.2,11.3-10.1,14.2-3.3,2.6,6.1-.4,25.6-.2,33.7Z"/>
        <path class="st85" d="M295,242c-42.9,23.3-92,25.1-135,0,.6-2,3,0,4,.5,41,19.6,86.5,23,127.1,0,1-.5,3.3-2.7,3.9-.6Z"/>
        <path class="st1" d="M248,408c4.1,8.4,8.3,18.6,9,28-1.9,1-5.7-.2-8-1-.2-.5-1.3-.6-2-3-.6-7.7-2.6-15.1-5.8-22.4.2-1.5,5.6-2.9,6.8-1.6Z"/>
        <path class="st34" d="M199,405c2.1.9.3,3.1-.1,4.4-2.4,6.6-6.2,17.8-9.4,23.6s-12,6.5-18,7-41.7-.7-46.5-6,1-.9,1-1c1.3.4,2.7.6,4,1,11.6,3.8,24.1,5.8,36.5,5,3.7-.2,15.9-1.8,18.8-3.2s11.4-25.7,13.7-30.8Z"/>
        <path class="st6" d="M305,429c2.5.9-1,1.6-1.7,1.8-17.2,6.8-37.2,8.9-55.4,5.1.1-.5,1-.9,1-1,2.8-.7,5.6.8,8,1,14.2,1,34.9-1.2,48-7Z"/>
        <path class="st7" d="M121,329c-.7,1.7-.9,1-2.1.6-2.7-.8-5.5-2.7-8.5-3.5-8.7-2.4-19.9-4.6-28.8-3.9s-10.4,3.2-14.6,1.9c-.3-1.3,0-1.9,1.1-1.4l6.9-1.6c14.5-1.9,33,1.5,46,8Z"/>
        <path class="st52" d="M355,297c-3.9-6.7-6.8-15.2-8.7-22.8-2.9-11.6,1.5-8.9-9.3-16.2.6-2.1,3,0,3.9.6,8,4.8,6,12.1,8.4,20.6s3.3,9.3,5.2,13.8,2.6,3.3.5,4Z"/>
        <path class="st63" d="M246,396c-3.3-1.1-8.3,1-10.5,1h-16c-.4,0-2.2,1-3.9,1.1-3.4.2-8.9.5-11.6-1.1,6.6-3,19,.7,26.5-2,5.4.4,10.5-.9,15.5,1Z"/>
        <g>
          <path class="st14" d="M290,280c2.1,1.5,4,3.7,5,6,.4,3.7,1.5,18.9,0,21.5s-.5.1-1.1,0c.5,0,.9.2,1,.5.5,1.2,0,23-.4,24.9s-.3.5-.6.7c-.2,3-.6,6.2-1,9.5-1.6,3.7-6.2,8.7-10,10-24.4,1.2-49.9,2.3-74.7,2.6s-8.4-.8-12.3-2.6c-2.1-1.6-3.9-3.6-5-6-.7-17.2-.5-34.4.5-51.7,2-11.7,6.8-15.8,18.9-16.6,22.2-1.5,46.8-1.8,69.1-1.4,3.4,0,7.3,1.4,10.4,2.7Z"/>
          <path class="st34" d="M290,280l-10.5-2c-23.9,2.3-51.6-1.4-75,2.1-7.7,1.2-12,9.5-12.4,16.6l-1.1,50.4c-3.4-7.7-1-10.6-1-17.5,0-11.5-.7-24.7,1-36,3-19,20.7-14.9,34.5-15.5s40.2-2.9,57-1,5.1,1.2,7.5,3Z"/>
          <path class="st73" d="M283,353c-3.4,1.2-12.5,1.8-16.5,2-7.6.4-15.4-.3-23,0-12.9.4-27,2.5-40,1-3.1-.3-5.1-1.2-7.5-3l9.5,2c23.8-1.6,48.6,0,72.3-2.7,1.6-.2,4.2-1.1,5.2.7Z"/>
          <path class="st56" d="M293,343c-2.3-1.9,1-7.4,1-9.5v-26c0-.5,1.3-1.9,1-3v-18.5c2.6,6.2.9,8.1.9,13.5,0,10,.6,35.4-3,43.5Z"/>
          <g>
            <path class="st33" d="M280,335c-.3,1.5-2.9,3.7-3,4-23,1.4-47.7,2.4-71.3,2.1l-1.3-1.8c-1-2,.2-42.8,1.5-44.6s1.8-1.6,3.1-1.9c24.1-1.7,47.9-2,71.4-.9l1.1,2.5c.3,13.4-.5,27.3-1.5,40.6Z"/>
            <path class="st81" d="M277,339c0,0,1,.5,1,1-12.5.7-25,.6-37.6,1s-4.6,1-6.9,1.1c-4.2,0-26.7.6-28.6-.5-4.1-2.4-1-14-.9-18,.1-6.2-1.2-25.4,1.5-29.5s3.2-1.9,4.9-2.1l67-1.8c3.1.4,4.2,1,4.5,4.2,1.5,12.8-1.2,28.1-1.1,41.1l-1-.5c1-5.7-.2-15.2,0-21.5.1-3.7,2.8-19.1.1-21s-22-.6-25.6-.5c-12.7.3-31.1-.3-43,1-1.9.2-3.7.5-5,2-.2,6.1-3.3,43.6-.6,45.6l71.1-1.6Z"/>
            <path class="st77" d="M220,305q2.2,2.5,0,0c2.5-1.6,12.3-1.7,14.6,0,4.2,3,.2,14.6,1.4,19.5-1,6.6-16.5,6-18.5,1.5s-.2-14.8.5-18.5.7-1.7,2-2.5Z"/>
            <path class="st66" d="M220,305c3.6.6,12.8-1.6,14.5,2s0,19.3-2.5,20.5-10.8,1-12.5-1.5,0-16.6.5-21Z"/>
          </g>
        </g>
      </g>
    </g>
    <g>
      <path class="st23" d="M335,201c-2-.6,0-3,.5-4,15.3-31.7,18.3-62.9,6.6-96.6s-2.3-3.4-.1-4.4c13.3,33.9,11.6,73.4-7,105Z"/>
      <path class="st33" d="M265,40c13.4,5,33.2,18.1,42.5,29s1.9.8.5,2c-28.8-6.5-57.2-6.3-86,0-18.6,5.7-36.4,17.8-46,35-11.7,25.3-11.1,52,1,77,8.6,15.1,23,26.5,39,33,25.2,8.1,50.9,9.1,77,7,0,0,.9.5.9.9-3,.2-4.8,2.9-6.9,4.1-14.1,9.4-33.1,14.7-50,15-2.7-.3-2.5-1.2,0-2l1.6-2.1c-38.6-4.6-73.4-26.2-93.6-58.9,2.1-1.8,6.8-9.3,8-12,4.2-14.6,3.7-29.9-2-44-4.5-7.7-11.3-13-20-15-.5-.4-1-1.2-1.5-2.2,2.1-12.3,5.6-23.9,10.5-34.8,11.4-13.5,26.1-25.7,43-32,25.4-10.3,56.6-10.3,82,0Z"/>
      <path class="st97" d="M145,180c2.9-.6,2.4.4,3.6,1.8,3.4,4.2,6.2,9.1,9.9,13.2,24.8,28.2,60,42.8,97.5,43-.2,1.5-4.3,1.6-5.7,1.8-4.6.8-8.8.9-13.3,1.2-23.6,4.4-47.8-3.3-69-13-5.4-3.1-10.3-7-15-11-3.1-3.6-6.4-6.9-10-10-3.2-3.7-6.7-7.7-9-12-3.5-6.2-1.8-9.9,5-11,1.4-1,5.5-3.6,6-4Z"/>
      <path class="st31" d="M123,123l2.7,1.5c4.4,10.8,6.4,21,4.7,32.6s-4.5,18.8-15.5,12.9c-3.9-2.4-1.9-1.2-4-4-6.2-10-6.1-22.2-2-33,3-6,6.4-10.1,14-10Z"/>
      <path class="st59" d="M115,170c8.6,2.6,9.6,0,12-7.5,4.6-14.1,1.2-26.3-4-39.5,29.3.5,20.7,64.3-8,47Z"/>
      <path class="st8" d="M131,109c-1-.2-2.4.4-3-1-1.8-.6-4.2-.7-7.3-.5.7-2.5,1.2-5,1.3-7.5,4.1-10.9,10.7-19.4,18-28l-9,37Z"/>
      <path class="st21" d="M308,71c-1.4,1.2-1.5,1.1-3.2.8-5.5-.8-11.5-2.9-17.4-3.7-21.4-2.7-39.6-1.2-60.3,3.4s-4.1,1.3-5-.6c27.2-8.3,58.8-7.3,86,0Z"/>
      <path class="st67" d="M216,216c.9-1.9,3.2-.4,4.5,0,24.4,7.4,48.7,9.5,74,5,1.8,1.1-1.3,1-1.5,2-25.5,3.1-52.9,2.9-77-7Z"/>
      <path class="st29" d="M183,40c-2.5-1,1.1-1.5,1.8-1.7,26.3-8.8,52.2-8.9,78.5,0s4.3.8,1.8,1.7c-24.5-9.2-57.5-9.2-82,0Z"/>
      <path class="st16" d="M177,183c-13.1-23-13.9-53.8-1-77,2.1.6,0,2.9-.5,4-10.1,23.2-10,46.2,1,69s2.5,3.4.5,4Z"/>
      <path class="st93" d="M237,241v2c-14.1,1-33.4-.8-47-5s-16.2-6.7-22-10c.6-2,3,0,4,.5,22.5,10.7,40.1,14.1,65,12.5Z"/>
      <path class="st11" d="M153,168l2-13.5v-13c0,0-4-17.5-4-17.5,6.6,11.1,7.2,32.3,2,44Z"/>
      <path class="st44" d="M111,166c-7.2-9.5-7.2-22.5-2-33-2.9,11.2-3.4,22.4,2,33Z"/>
      <path class="st84" d="M139,184c-1.5,1.1-6.9,4.1-6.9,4.5,0,1,4.4,5.1,1.9,6.5-4-7.4-4.6-9.2,5-11Z"/>
      <path class="st25" d="M153,217c-3.8-3.3-6.7-6.2-10-10l5.5,4,4.5,6Z"/>
      <path class="st53" d="M122,100c2.6,1.2-1.3,6.8-1,7h8.5c1.6,1.3-.8,1-1.5,1-2.7.1-5.3,0-8,0-.5-.4,1.5-6.7,2-8Z"/>
      <g>
        <path class="st78" d="M319.7,91.3c4.1,2.9,10.4,20.5,11.6,25.9,7.2,30.4-.7,59.1-16.3,85.3-29,3.9-80.9,9.4-105-10s-25.6-42.3-21.7-65.8c7.4-45,68.6-46.7,104.1-41.6,4.5.6,24.6,4.3,27.3,6.2Z"/>
        <path class="st80" d="M299,101c20.9,11.8,21.5,57.3,9,75-5.9,5.5-11.8,2.8-10.2-5.9,4-16.4,3-31.4-2.8-45.1-2.1-4.3-6.6-8.2-8-13-5-9.5,2.8-16.5,12-11Z"/>
        <path class="st12" d="M308,176c-2.4,3.3-5.2,5.5-9,2.5s-.3-16.3,0-21.9c.6-10.3.5-22.1-4-31.5,1-2.3,2.1,1.7,2.3,2.2,6.2,16.2,2.5,31.5.8,48.1.7,1.9,2.3,2.8,4.3,2.8l5.5-2.1Z"/>
        <path class="st19" d="M299,101c-10.1-3.1-15.2.4-12,11-4.7-4.6-1.3-14.2,5.4-14s4.5,1.8,6.6,3Z"/>
      </g>
    </g>
    <g>
      <path class="st60" d="M375,140c-8.1-18.1-7.9-37.9,0-56,2.1,1,.3,3.1-.1,4.4-5.7,16.7-5.2,30.5,0,47.3.4,1.3,2.3,3.4.1,4.3Z"/>
      <path class="st40" d="M491,146c-2-.6,0-3,.5-4,5.1-11,8.3-23.2,7.5-35.5-.4-5.5-3.7-12.3-2-17.5,6,18.5,3.8,40.2-6,57Z"/>
      <path class="st3" d="M461,50c-.9,1.9-3.2.4-4.5,0-16.6-5-28.6-5-45.1.8-1.3.5-3.4,2.2-4.4.1,16.8-7.9,36.9-8,54-1Z"/>
      <path class="st24" d="M447,63c5.7,1.3,11.4,4.5,16,8-4.8.2-9.5-2.6-14.5-3-43.1-3.9-66,46.6-37.6,78.6,5,5.6,10.2,8.1,16,12.5-3.7-.3-7.7-.9-12-2-9.9-4.3-19.7-14.2-24-24-3.9-14.2-6.4-28.9,1-43,3.3-9,12.4-18.7,21-23,11.4-3.8,21.9-5.3,34-4Z"/>
      <path class="st69" d="M391,133c-5.8-13.1-7-30.6,1-43-5,13.7-5.4,24.8-1.1,38.6.4,1.3,2.3,3.4.1,4.4Z"/>
      <path class="st0" d="M447,63c-3.9,2.2-8.7-.1-13.5,0s-11.1,2.1-16.2,3.9-3.4,2.2-4.4.1c9.8-4.9,23.2-6.4,34-4Z"/>
      <g>
        <path class="st86" d="M463,71c35.6,26.6,22.8,85.9-21,90-5.3,0-10.3-.6-15-2-59.2-24.2-24.1-115.2,36-88Z"/>
        <path class="st70" d="M427,159c5.2.9,10.5.5,15,2-8.9.8-18.8-.5-27-4,3.1-1.5,7.9,1.3,12,2Z"/>
        <path class="st64" d="M467.7,96.3c2.1,2.5,1.5,5.9-.7,8.2l-34.9,34.1c-5.2,3.6-21.1-14.2-21.8-17.3s1.8-8.8,6.1-8.1c6.1,1,8.5,12.6,15,10.7s23.7-25.4,29.7-29.3c1.8-1.3,5.5.4,6.7,1.8Z"/>
      </g>
    </g>
  </g>
</svg>