<?xml version="1.0" encoding="UTF-8"?>
<svg id="Layer_1" data-name="Layer 1" xmlns="http://www.w3.org/2000/svg" viewBox="0 0 524 524">
  <defs>
    <style>
      .cls-1 {
        fill: #adefcb;
      }

      .cls-2 {
        fill: #b2c0d0;
      }

      .cls-3 {
        fill: #5b90b4;
      }

      .cls-4 {
        fill: #080f1a;
      }

      .cls-5 {
        fill: #faf9f8;
      }

      .cls-6 {
        fill: #fcfaf9;
      }

      .cls-7 {
        fill: #070e18;
      }

      .cls-8 {
        fill: #060e1b;
      }

      .cls-9 {
        fill: #060f1a;
      }

      .cls-10 {
        fill: #b5c3d1;
      }

      .cls-11 {
        fill: #b4c4d3;
      }

      .cls-12 {
        fill: #d0ddeb;
      }

      .cls-13 {
        fill: #040c18;
      }

      .cls-14 {
        fill: #bdd2e1;
      }

      .cls-15 {
        fill: #0b101d;
      }

      .cls-16 {
        fill: #022337;
      }

      .cls-17 {
        fill: #060d17;
      }

      .cls-18 {
        fill: #060e18;
      }

      .cls-19 {
        fill: #d2dfec;
      }

      .cls-20 {
        fill: #000613;
      }

      .cls-21 {
        fill: #bbd3e2;
      }

      .cls-22 {
        fill: #000615;
      }

      .cls-23 {
        fill: #0e1620;
      }

      .cls-24 {
        fill: #050e1a;
      }

      .cls-25 {
        fill: #07101a;
      }

      .cls-26 {
        fill: #8ee5ae;
      }

      .cls-27 {
        fill: #e9f1f9;
      }

      .cls-28 {
        fill: #c5d0da;
      }

      .cls-29 {
        fill: #fbf9f8;
      }

      .cls-30 {
        fill: #b3c2d1;
      }

      .cls-31 {
        fill: #050d16;
      }

      .cls-32 {
        fill: #c2cdda;
      }

      .cls-33 {
        fill: #bbc9d7;
      }

      .cls-34 {
        fill: #040b17;
      }

      .cls-35 {
        fill: #faf8f7;
      }

      .cls-36 {
        fill: #050c17;
      }

      .cls-37 {
        fill: #d1e1eb;
      }

      .cls-38 {
        fill: #7aa9c9;
      }

      .cls-39 {
        fill: #020a15;
      }

      .cls-40 {
        fill: #09111c;
      }

      .cls-41 {
        fill: #c1ccd9;
      }

      .cls-42 {
        fill: #060e1a;
      }

      .cls-43 {
        fill: #dfedf9;
      }

      .cls-44 {
        fill: #09111e;
      }

      .cls-45 {
        fill: #5b9cc2;
      }

      .cls-46 {
        fill: #e5f0f6;
      }

      .cls-47 {
        fill: #040a14;
      }

      .cls-48 {
        fill: #e3edf4;
      }

      .cls-49 {
        fill: #050d17;
      }

      .cls-50 {
        fill: #78b8dc;
      }

      .cls-51 {
        fill: #08101b;
      }

      .cls-52 {
        fill: #012337;
      }

      .cls-53 {
        fill: #c5d2e0;
      }

      .cls-54 {
        fill: #07101b;
      }

      .cls-55 {
        fill: #e1edf6;
      }

      .cls-56 {
        fill: #b2c2d1;
      }

      .cls-57 {
        fill: #d5e0e8;
      }

      .cls-58 {
        fill: #0b111e;
      }

      .cls-59 {
        fill: #fbf9f9;
      }

      .cls-60 {
        fill: #060f1b;
      }

      .cls-61 {
        fill: #f8f8f8;
      }

      .cls-62 {
        fill: #07101c;
      }

      .cls-63 {
        fill: #2a6990;
      }

      .cls-64 {
        fill: #050e18;
      }

      .cls-65 {
        fill: #060d1a;
      }

      .cls-66 {
        fill: #f4f7f4;
      }

      .cls-67 {
        fill: #d0ddea;
      }

      .cls-68 {
        fill: #022236;
      }

      .cls-69 {
        fill: #0b131f;
      }

      .cls-70 {
        fill: #dfeff8;
      }

      .cls-71 {
        fill: #abe7ca;
      }

      .cls-72 {
        fill: #b3ead3;
      }

      .cls-73 {
        fill: #08111c;
      }

      .cls-74 {
        fill: #8abedf;
      }

      .cls-75 {
        fill: #060c16;
      }

      .cls-76 {
        fill: #82c6ee;
      }

      .cls-77 {
        fill: #bfcbd8;
      }

      .cls-78 {
        fill: #020611;
      }

      .cls-79 {
        fill: #030b16;
      }

      .cls-80 {
        fill: #0d3349;
      }

      .cls-81 {
        fill: #060e19;
      }

      .cls-82 {
        fill: #a9bcc8;
      }

      .cls-83 {
        fill: #030915;
      }

      .cls-84 {
        fill: #faf8f8;
      }

      .cls-85 {
        fill: #b3c3d1;
      }

      .cls-86 {
        fill: #e4edf5;
      }

      .cls-87 {
        fill: #050d18;
      }

      .cls-88 {
        fill: #5cca8d;
      }

      .cls-89 {
        fill: #4c8cb2;
      }

      .cls-90 {
        fill: #020813;
      }

      .cls-91 {
        fill: #cedde7;
      }

      .cls-92 {
        fill: #d5e5f0;
      }

      .cls-93 {
        fill: #bac7d6;
      }

      .cls-94 {
        fill: #0b141e;
      }

      .cls-95 {
        fill: #e3edf3;
      }

      .cls-96 {
        fill: #37789f;
      }

      .cls-97 {
        fill: #060d19;
      }

      .cls-98 {
        fill: #050c16;
      }

      .cls-99 {
        fill: #c5cfdc;
      }
    </style>
  </defs>
  <rect class="cls-6" width="524" height="524"/>
  <g>
    <path class="cls-52" d="M275,28c29.9,12.65,55.13,37.71,67,68,12.32,35.2,9.99,71.68-7,105-5.56,9.45-13.08,17.55-20,25.99l38.5,21.65,17.94-14.7c4.14-16.86,10.32-31.48,30.05-30.93,3.15.09,7.58,3.09,9.51-1.01.26-.21.47-.42.52-.67.69-3.61,4.64-24.79,3.99-26.42-.3-.76-5.25-2.36-6.51-1.91-14.84-6.84-27.2-17.89-34-33-6.52-18.98-6.55-37.02,0-56,6.15-14.1,18.09-26.45,32-33,18.23-6.62,35.43-6.71,54-1,16.56,6.79,30.5,21.98,36,39,4.39,19.84,2.99,38.32-6,57-11.13,19.21-30.62,30.81-52.91,32.09l-5.09,32.91c11.11-.97,20.49,6.27,25,16,4.5,13.84,3.53,27.38-1,41-2.29,5.11-6.61,11-10.99,14.51-3.89,3.12-9.38,4.43-12.02,6.98s-6.08,9.42-9.02,12.98c-11.63,14.1-27.05,27.21-43.97,34.53-22.01,7.95-43.19,7.92-65,1-2.33,10.92-4.94,23.74-2.57,34.95,10.31,26.48,9.69,57.66,4.57,84.05.72.14,10.66,7.31,12.01,8.49,8.63,7.52,14.28,18.84,12.98,30.52,7.02.21,14.4.56,21.01,3,5.53,2.8,3.8,3.46-1.12,5.28-6.3,2.34-19.69,3.18-26.34,3.44-79.79,3.07-160.29,2.97-239.69.5-12.45-.39-25.21-.96-37.22-3.19-11.9-2.21-6.31-6.65,2.59-7.37l25.03-2.16c.09,0-1.2,1.22-.25-.5-.07-.29.03-.66,0-1-.18-22.53,7.6-44.58,16-65-.2-.15-.69.12-1,0-12.02,1.72-22.84.08-34-5-20.54-12.36-21.24-31.4-19.96-53.34-4.69-2.63-8.78-5.33-12.04-9.66-3.04-5.38-5.49-10.94-4.98-17.77,2.07-42.93,5.1-85.92,8.41-128.79,1.12-4.82,2.5-9.86,4.56-14.44,3.34-5.03,10.37-10.82,16-13,2.2-.05,4.37-.38,6.5-1,13.62-1.13,28.7-1.07,42.5,0-12.84-.64-25.84-.97-39-1l37.99-1.01c-1.29-1.93-4.05-2.78-6.01-4.48-2.09-1.81-4.42-4.23-5.99-6.51-7.76-16.55-7.52-38.21,2-54,5.31-6.95,4.08-8.71,6.73-16.77,10.95-33.22,33.1-58.99,65.27-73.23,34.47-13.29,70.32-13.79,105-1Z"/>
    <g>
      <path class="cls-39" d="M87,495c.04.16,1.26.19,1,.99-9.04,2.42-25.12.26-33.31,4.2-5.15,2.48,6.64,4.28,8.09,4.54,27.83,4.9,60.38,2.74,88.76,3.24,62.74,1.1,134.92,4.66,196.95-1.97,5.72-.61,13.97-1.3,18.51-4.49l-3.65-1.36.65-1.14c1.27.47,2.69.68,4,1.02,3.12,4.69-11.89,6.48-14.62,6.86-14.36,2-28.56,1.58-42.91,2.09-64.88,2.3-131.05,2.07-195.92,0-10.03-.32-55.89-.11-61.55-5.44-.9-.85-1.36-1.75-.96-2.98,1.23-3.83,30.04-5.49,34.98-5.54Z"/>
      <path class="cls-49" d="M36,361c-6.8-9.03-6.46-16.66-6.04-27.54.92-23.79,4.29-49.05,6.03-72.97,1.2-16.56-.82-47.21,8.01-60.49l-3.99,14.51c-1.41,45.59-8.37,91.39-7.75,136.73l3.74,9.76Z"/>
      <path class="cls-98" d="M318,457c-.07-.01-.29,1.2-.98,1.01,4.5-23.06,5.6-46.07.71-69.23-1.32-6.24-5.2-14.37-5.77-20.22-.59-6.04.99-21.75,2.07-28.07.31-1.8.77-1.7,1.98-2.49.39,9.07-3.64,20.79-3.03,29.48.4,5.75,5.16,16.65,6.54,23.51,4.24,21.02,3.85,45.24-1.51,66.01Z"/>
      <path class="cls-81" d="M275,28c-.97,2.12-3.09.32-4.36-.13-33.87-11.95-62.63-11.58-96.26,1.01-1.28.48-3.43,2.21-4.37.13,32.9-14.56,71.89-15,105-1Z"/>
      <path class="cls-73" d="M381,337c-20.88,9.03-43.87,9.57-65,1,.79-.51.48-1.05,2.18-.85,4.48.54,11.04,4.03,16.42,4.74,14.21,1.88,28.62,0,42.03-4.76,1.28-.45,3.4-2.25,4.37-.13Z"/>
      <path class="cls-54" d="M96,173c-9.57-13.89-8.27-40.58,2-54l-4.04,9.46c-3.49,9.75-1.51,20.74-1.88,30.95l3.92,13.58Z"/>
      <path class="cls-51" d="M87,494c-1.7-20.74,6.89-46.6,16-65,1.25.93,1.19.3.59,2.07-1.68,4.92-5.21,10.57-7.05,15.97-3.23,9.5-7.24,24.73-8.44,34.56-.49,4.04.98,8.85-1.11,12.39Z"/>
      <path class="cls-40" d="M457,268l3.04-17.46c-.31-3.92.35-8.17-.05-12.02s-3.44-8.02-1.99-11.51c5.99,12.93,4.73,28.22-1,41Z"/>
      <path class="cls-78" d="M70,185c10.8-.68,24.6-.45,35.51,0,1.23.05,3.71-.76,3.49,1h-42.5c-1.11,0-5.05,3.68-6.5,1,3.73-1.44,6.04-1.75,10-2Z"/>
      <path class="cls-51" d="M102,429c-11.35,3.23-23.96,1.04-34-5l18.62,4.87c5.71,1.25,10.18-1.94,15.38.13Z"/>
      <path class="cls-94" d="M409,173c.92-2.34,6.87.98,7.04,1.67,1.49,6-4.87,21.68-4.04,28.82l-1-1.5,4-26.97c-2.09-.37-4.09-1.14-6-2.03Z"/>
      <path class="cls-35" d="M224,412c.09.87,3.36,6.89,4,7,4.11,8.04,6.23,19.82,6.19,29.1l-5.19,44.9h-36c2.22-5.51.7-13.4-1.82-18.68-.97-2.02-5.15-6.44-5.04-7.65.14-1.53,10.15-17.35,11.86-20.67,4.71-11.64,9.63-23.1,14.78-34.38,1.31-1.17,10.63-1.64,11.22.38Z"/>
      <path class="cls-5" d="M302,445c.92-.3,1.52-1.45,2.99-1,1.63,5.8-6.14,15.91-4.84,20.29.7,2.33,14.42,8.63,17.76,11.29,6.49,5.19,10.31,10.51,6.09,18.41l-.53.96c-20.1.97-40.59.64-61.47-.96l-15-1c-1.5.77-2.52-.46-2-2-.04-3.66.03-7.34,0-11-.87-.28-.86-.62,0-1,4.67-1.27,3.1,9.71,2.5,13,1.44-3.33,12.32-2.98,14.5,0-.93-.24-1.87-.52-2.67-1.05-3.94-2.64-2.36-32.39-1.38-38.04l2.05-1.9c14.2-.19,28.26-2.79,42-6Z"/>
      <path class="cls-84" d="M83,336c7-1.84,30.75,2.48,35.09,7.62-.48,5.56-.85,11.1-1.11,16.64,4.32,5.86,12.6,19.01,8.98,26.3-1.91,3.84-6.67,4.38-5.97-.56-1.13-1.35-1.19-1.94-3-3-9.25-1.73-11.05-.03-11.09,8.72,1.17,5.51,1.53,10.61,1.09,15.28-.02.63.14,1.52,0,2-3.82.54-12.44-3.36-15.57-6.06-17.43-15.1-17.22-38.38-16.09-59.52-.4-1.87-.85-3.68-1.34-5.42,2.09-.57,7.22-1.87,9-2Z"/>
      <path class="cls-84" d="M173,453c1.45-.1,3.82-1.84,5-.5-2.91,2.3-4.51,6.52-7.07,8.93-2.08,1.96-7.37,2.64-6.98,7.02.31,3.47,11.7,7.04,13.59,13.51,1.65,5.65-.18,6.85-2.54,11.04.07.38.1.7-.05.83-2.03,1.78-43.16,1.53-50.51,1.24-1.16-.05-2.3-.5-3.44-1.07-.94-.3-2.33-.98-2.91-1.67-6.18-7.46,3.38-33.81,6.51-42.33l2.4-1c15.02,3.23,30.43,4.05,46,4Z"/>
      <path class="cls-11" d="M142,230l-18.01,15.49c-20.79,20.47-40.03,44.18-44.86,73.94l-5.12,1.58-6.59,1.91c-1.43-.19-1.57-1.83-.41-4.91.95-6.02,1.95-12.02,3-18,7.71-25.46,28.27-55.32,51.08-69.42,2.13-1.32,10.84-6.12,12.67-6.42,4.79-.79,5.59,3.73,8.25,5.84Z"/>
      <path class="cls-77" d="M74,338c1.22,1.21,2.79.23,3.08,2.44.99,7.39-.67,17.2-.07,25.05.99,12.96,5.57,28.51,16.49,36.51,4.47,3.28,9.73,3.43,13.5,7-.35,1.24-1.13,1.41-2,2-10.33,3.67-20.96,3.66-31-1-3.71-2.46-7.36-9.9-8-10-.87-.28-.86-.62,0-1-1.01-18.42-1.18-36.9-.51-55.43l1.51-2.57c2.84-1.46,3.62-2.08,7-3Z"/>
      <path class="cls-29" d="M401,285c-5.31,6.67-11.58,12.7-18.81,18.07l-2.19-.07c-10.2-8.21-19.99-24.29-19.75-37.74.04-2.35,11.16-10.45,13.74-12.26.75,7.56,7.03,16.11,13.07,20.44,2.35,1.68,5.78,2.4,7.87,4.13,1.83,1.52,4.06,5.68,6.07,7.43Z"/>
      <path class="cls-59" d="M444,232c5.62,7.17,4.15,21.22,0,29-.39.95-3.16,4.97-4,6-6.7,3.85-13.24.86-18.47-4.07-.73,2.2-1.91,3.22-3.53,3.07.54-13.46,2.54-26.8,6-40,6.27-1.53,16.47-.07,20,6Z"/>
      <path class="cls-32" d="M364,309c3.15,3.31,8.19,7.43,12,10,3.47,3.05-7.64,5.88-10.97,6.71-14.44,3.63-34.13,3.39-46.4-5.14l-.63-6.57c-1.46-1.27-1.23-7.25,1-7,.05,1.99-.04,4.01.01,6l1-6.99c12.48,3.41,26.51,7.67,39.48,4.98,1.71-.36,3.5-.13,4.52-1.98Z"/>
      <path class="cls-89" d="M54,243c8.65.03,17.33.32,26.03.88l.97,1.12c-.54,1.89-7.31,9.76-9.03,12.47-10.1,15.95-16.55,32.14-20.97,50.53-1.17-3.38-1.83-7.04-2-11,.33-13.8,2.99-27.75,3.99-41.51.19-2.62-.86-11.88,1.01-12.49Z"/>
      <path class="cls-5" d="M392.35,221.35c6.02-5.77,14.7.22,15.62,7.24.45,3.47-4.13,30.07-5.98,31.89-4.83,4.74-10.71-3.42-12.48-7.47-3.54-8.08-3.86-25.23,2.85-31.66Z"/>
      <path class="cls-45" d="M84,202c.76.27,1.89.69,1.9,1.3.03,2.45-1.18,21.49-1.79,22.43-.48.73-1.29,1.08-2.11,1.27-8.9.64-18.06.81-27.46.5.18-2.89,0-5.73-.54-8.5.57-6.28,5.09-15.93,12-17,6.06-.5,12.06-.5,18,0Z"/>
      <path class="cls-56" d="M125,448c1.03-.88,2.19-.38,2,1-4.02,13.44-13.28,31.83-6,45-.59,1.58-1.41,1.58-2,0l-13-1c-.35-.7-.66-1.11-1-2-.72-10.89.28-21.89,3-33,1.09-4.05,2.35-7.19,4-11,.84-.65,1.57-1.64,2.19-2.99,3.61,2.15,7.21,3.48,10.81,3.99Z"/>
      <path class="cls-93" d="M150,311c1.32,1.74.9,3.25.75,5.17-1.42,17.94-6.51,35.47-8.77,53.32-.36,2.83-.75.27-1.98,1.51-1.08-4.49-7.64-13.78-8.01-16.57-.59-4.47,3.88-17.28,5.01-22.43.08-4.29,1.41-7.62,4-10,2.65-4.66,5.8-6.95,9-11Z"/>
      <path class="cls-63" d="M107,202c-.63,3.71-.79,7.55-.48,11.5-2.57,3.02-4.08,6.19-4.52,9.5-.75.61-4.37,4.9-4.71,4.98-3.56.77-11.07-.04-15.29.02-.87-.28-.86-.62,0-1l2-25c-.43-.37-.1-.7,1-1,.33,0,.67,0,1,0,7.08.38,14.08.71,21,1Z"/>
      <path class="cls-41" d="M401,285c.36.31.67.76,1,1l12.62,2.21c.7.13.73.89.38,1.79-2.09,3.74-17.29,20.11-20.75,20.83s-11.53-5.63-14.25-7.83c1.75-4.23,7.4-6.31,11.01-9.49s5.28-8.1,9.99-8.51Z"/>
      <path class="cls-85" d="M137,397c1.23,1.51.45,3.03.22,4.64-1.33,9.34-2.94,19.85-5.12,28.98-.41,1.7-.07,2.52-2.1,3.38-.84,1.58-3.58.58-4-1-.25-1.44-6.53-2.85-6.77-4.46-.17-1.14,3.35-8.56,3.77-10.54.76-1.58,1-1.78.72-.61l1.4-11.32c2.46-1.22,4.42-2.58,5.87-4.07,1.97-1.95,4.54-3.41,6-5Z"/>
      <path class="cls-96" d="M114,201c3.66-.06,8.95,4.43,10,7.98-7.87,3.67-15.27,8.59-22,14.02-4.1-5.91,1.59-6.17,2.58-9.96.83-3.18-2.65-7.42,2.42-11.04,2.14-.64,4.47-.98,7-1Z"/>
      <path class="cls-28" d="M440,267c-4.25,5.24-9.73,9.11-16.74,6.24-2.47-1.01-4.41-5.13-5.26-5.24-.78-.66-.77-1.38,0-2l2.5-7c2.89,3.32,7.77,7.31,12.27,7.82,2.6.3,4.86-1.6,7.24.17Z"/>
      <path class="cls-42" d="M287,228c1.35,1.47-1.01,2.03-1.96,2.53-28.51,15.05-61.34,17.49-92.45,9.38-.43-.11-5.25-.86-2.59-1.91,3.66-.08,7.54.54,11.62,1.87,0,0,11.79,1.04,35.38,3.13,16.16-1.09,36.08-6.75,50-15Z"/>
      <path class="cls-60" d="M83,336l-2.5-1c6.53-1.58,34.83,2.79,38.01,7.99,1.55,2.54-1.79,13.37-.31,18.31.47,1.57,2.71,2.72,3.64,4.36,3.08,5.47,10.15,21.12,1.44,24.14-2.88,1-5.14-.8-3.28-3.8.94,1.13.31,3.53,2.47,2.98,6.09-2.33,2.55-13.12.7-17.65-1.6-3.94-6.76-8.87-7.15-10.85-.99-5.07,1.84-11.32,1.55-16.49-9.76-4.96-23.55-8.82-34.58-7.99Z"/>
      <path class="cls-7" d="M302,445c-14.28,4.74-26.9,6.38-42,6-2.08,1.99-5,2.44-8.75,1.33-1.97,7.66-3.49,16.24-4.21,24.43l-2.04,2.24v1l-1.01,10.99-.98-9.48,5.13-32.37c7.3-.55,13.91,1.26,21.35.85,8.92-.49,19.4-2.66,28.01-5,1.32-.36,3.58-1.97,4.5.01Z"/>
      <path class="cls-97" d="M229,495c-.88-.25-.86-.58,0-1,.05-.32-.01-.67,0-1,.59-13.92,2.93-25.4,3.98-38.52.99-12.37-1.15-23.84-4.98-35.48.07.01.33-1.59.99-1,2.36,2.13,7.12,27.85,6,32.49l-5.99,44.51Z"/>
      <path class="cls-15" d="M247,493l15,1c13.15.25,26.39-.4,39.54-.04,6.99.19,15.31,2.78,22.46.04-.1.18,2.24,1.64-2.46,2.05-23.62,2.09-49.29-2.28-73.09-1-1.47.02-2.56-.43-3.57-1.51-1.59-1.7.12-2.39.11-2.54.4.94,1.05,1.61,2,2Z"/>
      <path class="cls-12" d="M66,399l-1.14-1.37c-1.94-18.12-2.23-36.33-.86-54.63,1.1-.51,1.94-1.46,3-2l-1,58Z"/>
      <path class="cls-50" d="M51,308c0,7.95-2.42,17.46-2.99,25.51-.39,5.43.27,11.05-.02,16.49-1.82-.85-2.99-5.8-3-7.48-.05-10.34,2.72-22.62,3.01-33.51.5-2.19.84-4.52,1-7-.06-1.65-.04-3.35,0-5,.79,2.32,2,8.47,2,11Z"/>
      <path class="cls-48" d="M318,314c1.9,1.36.57,4.4,1.16,6.34.86,2.83,17.82,6.32,21.36,6.64,10.27.93,25.08-.82,34.28-5.72,1.94-1.03.11-1.44,1.2-2.27.78.53,2.04.88,2.99,1.01-.05.32.14.86,0,.97-.26.22-5.29,2.72-5.99,3.01-10.55,4.37-26.05,5.64-37.22,3.72-3.06-.52-15.07-3.48-16.81-5.19s-.94-6.05-.97-8.53Z"/>
      <path class="cls-90" d="M175,493c-.08.15,2.01,1.51-1.49,2.01-10.46,1.5-26.74-.25-38.05-.05-2.36.04-4.55,1.03-6.92,1.08-7.37.16-15.46.52-22.56-1.07.13-.43,1.04-.91,1.01-.97,3.04-1.22,8.25-.59,12,0h2c16.05,0,32.54.6,48.55.04,1.9-.07,3.79.1,5.45-1.04Z"/>
      <path class="cls-44" d="M198,446c-2.01-.6,0-3,.49-4.01,2.19-4.55,12.61-29.77,14-31,2.45-2.18,9.12-.47,12.51-.98.34.88-1.01,1.87-1,1.99-1.42-.98-10.38-.12-10.84.16-.9.54-6.65,16.66-7.98,19.51-2.25,4.81-4.75,9.61-7.18,14.32Z"/>
      <path class="cls-17" d="M173,453c-15.14,1.01-31.36.57-46-4-.46-.14-1.19-.72-2-1-1.88.39-4.15-.19-5-2,.97-2.12,3.09-.31,4.36.13,7.21,2.5,16.71,5.08,24.26,5.74,8,.7,16.73-1.09,24.37,1.13Z"/>
      <path class="cls-24" d="M418,266c0,.67,0,1.33,0,2-.08-.01-.54.88-.98,1.01-.86-13.62,4.08-27.61,5.18-41.34.22-.98.87-1.45,1.79-1.68-.51,12.75-6.04,27.54-6,40Z"/>
      <path class="cls-22" d="M64,343c1.08,18.39-2.34,38.18,2,56v1c-.09-.01-.54.85-.94,1-.86-2.96-1.83-5.28-2.1-8.46-1.36-15.98,1.1-33.84.04-50.04.2-1.37.95.52,1,.5Z"/>
      <path class="cls-64" d="M117,383c-2.55,1.78-8.32-1.79-9.84,2.66-1.74,5.13,1.5,17.03,1.85,22.82l-2.02-1.48c.16-6.47-4.77-19.75.47-24.03,3-2.44,6.42-1.79,9.53.03Z"/>
      <path class="cls-53" d="M105,491c-3.57-9.48.3-22.94,3-33,1.85.96.86,3.52.57,5.05-1.84,9.49-4.95,17.86-3.57,27.95Z"/>
      <path class="cls-57" d="M105,411c-8.24,5.58-22.86,4.41-31-1l13.46,3.03,17.54-2.03Z"/>
      <path class="cls-47" d="M444,232c1.48-1.34,2.16.99,2.5,2,2.8,8.27,1.99,17.19-.77,25.23-.23.67-.76,4.27-1.73,1.76,3.23-7.94,4.44-21.38,0-29Z"/>
      <path class="cls-37" d="M248,408l-6,1.01c-.98,1.07,8.52,19.49,5,22.99-2.11-7.89-3.27-16.05-7.01-23.49,0-.46,5.37-1.04,7.01-2.51.33.67.67,1.33,1,2Z"/>
      <path class="cls-76" d="M54,219c2.18,1.22.39,7.4,1,8,.96.95,23.39-.72,27,0v1c-9.32.14-18.69-.1-28.01,0,.19-2.95-.26-6.07,0-9.01Z"/>
      <path class="cls-20" d="M229,494c-.05.32.04.67,0,1l-36.01-.5,36.01-.5Z"/>
      <path class="cls-67" d="M131,402c-.05.05,1.16.62.1,1.44-1.61,1.25-3.63,1.04-4.91,3.25-1.75,3-.93,8.43-2.14,11.88l-1.05-.56c.5-2.36.73-12.15,1.16-12.85.25-.42,5.77-2.18,6.84-3.15Z"/>
      <path class="cls-38" d="M54,243c1.6-.52,23.58-.37,26.43-.01.92-.11.73,1.44.57,2.01-7.32-1.33-17.06-1.61-24.56-1.04-2.59.2-1.25,1.65-1.45,3.04l-.99-3.99Z"/>
      <path class="cls-3" d="M114,201c-1.22.02-4.16,1.02-7,1-6.76-.04-14.61.87-21-1,9.32-.05,18.68.04,28,0Z"/>
      <path class="cls-92" d="M67,318c-.41.49-.75.16-1-1,.75-5.4,2.41-11.75,4-17,1.87.87.41,3.25.11,4.59-.99,4.44-1.6,9.13-3.11,13.41Z"/>
      <path class="cls-19" d="M120,446c1.65.67,3.32,1.42,5,2-2.7,2.91-8.3-3.49-10.46-3-1.36.31-1.4,4.73-2.54,2,.49-1.14.68-2.75,1.01-4,.82-.59,5.58,2.43,6.99,3Z"/>
      <path class="cls-29" d="M402,286l13.99,1c.32,1.38-.42,1.98-.99,3-4.18-2.54-8.95-1.14-13-4Z"/>
      <path class="cls-74" d="M85,201c-.1.47-.55.96-1,1-5.5.53-10.56.08-16.51.83-.69.09-1.39-.84-1.49-.83,6.11-1.69,12.69-.96,19-1Z"/>
      <path class="cls-91" d="M67,318c.13,1.31-.1,2.68,0,4l6.99-1h1c-1.99.26-5.98,2.05-8,3-.51-.16-1.37.14-2.01-.02,1.51-2.24.7-4.76,1.01-6.98.47.1.95.54,1,1Z"/>
      <path class="cls-70" d="M141,322c-2.05,3.6-3.85,6.08-3,10.52l-1-.52c.81-3.73-1.54-7.67,4-10Z"/>
      <path class="cls-43" d="M119,494h-12c-.24-.61-.91-.83-1-1l.58-.77c4.03,1.61,9.14-.44,12.42,1.77Z"/>
      <path class="cls-89" d="M49,302c.1,2.84.55,5.24.99,8l-1.99-1c.06-2.2-.77-5.62,1-7Z"/>
      <path class="cls-30" d="M260,451c-.2,13.05-3.96,29.12,2,41h-14.5c-2.31,0-1.31-8.55-1.46-10.58-.09-1.29-1.04-2.29-1.04-2.42-.09-9.2,3.19-19.71,4.04-28.97,3.72.49,7.18.87,10.96.97Z"/>
      <path class="cls-52" d="M262,494c-4.96-.09-10.57.85-15-1,4.76.55,10.83-1.25,15,1Z"/>
      <g>
        <path class="cls-5" d="M160,242c43.3,22.36,91.88,23.29,135,0,1.69-.92,6.8-4.82,8.06-4.58,10.9,7.51,23.02,13.14,33.94,20.58,2.98.03,6.91,3.45,8.32,6.25,1.84,11.26,5.25,22.28,9.68,32.75,2.14,3.69,6.06,8.92,9,12,2.97,3.59-4.94,4.33-7.85,4.54-12,.84-22.95-1.58-34.38-4.98-.88,6.78-5.09,5.61-2.76-1.56l-.97-.54,1.4-24.83c1.95-15.05-13.83-15.41-14.29-.4-1.21,28.87-3.45,57.6-6.73,86.19l.95,6.76c5.58,17.12,11.41,35.6,7.63,53.82-.26.19-1.53.79-2,1-14.03,6.89-32.64,9.49-48,7l-2.22-2c-1.15-8.08-4.12-15.76-7.59-23.1l.81-2.9c-1.95.14-2.43-.64-1-2,3.53-3.17,3.43-8.32-1-10-13.96.14-27.96.47-42,1-3.36,1.52-3.64,5.03-5,8-1.97,7.43-4.95,17.26-8.67,24.21-4.53,8.48-8.73,9.58-18.26,9.96-11.92.47-29.65.84-40.73-3.54-.57-.23-.98-.87-1.34-1.63,1.35-12.59,3.69-24.92,7-37,5.44-5.93,4.79-18.56,3-26,3.16-20.21,6.49-40.21,10-60,3.36-4.25,10.88-11.44,11.1-16.48.33-7.39-4.24-9.95-11.08-8l-26.44,31.55c-2.02,2.95-1.38,8.12-2.58,10.92-14.09-4.89-29.32-9.58-44.6-7.02l-1.4-.98h-1c-.86-2.15,1.54-2.89,3.36-3.13,6.01-35.3,34.49-65.97,62.24-88.45l2.4.58c5.14,4.09,12.28,8.66,18,12Z"/>
        <g>
          <path class="cls-34" d="M319,307c-1.7,1.34-1.02,4.83-1,7-2.19,9.59,10.47,12.31,17.9,12.99,13.39,1.23,24.29.63,37.1-2.99,2.48,1.15-4.47,2.69-4.73,2.77-13.95,4.09-26.16,4.66-40.28.74-1.97-.55-9.93-3.12-10.99-4.01-2.45-2.04.74-20.69.99-25.01.44-7.54.41-15.23.79-22.78-4-8.48-11.8-4.86-12.78,3.79-1.52,13.43-.89,29.21-2.01,42.99-1.15,14.16-5.05,32.53-5,46.02.02,6.09,7.58,24.41,8.89,33.1s1.66,17.13.62,25.42c-.3.61-1.09.66-1.51.96.56-12.79-.01-24.18-2.87-36.63-1.56-6.78-5.68-15.33-6.17-21.82-1.08-14.28,3.77-38.66,5.03-54.06,1.01-12.38.23-26.94,2.07-38.93,1.11-7.24,11.27-10.11,14.19-3.3,2.62,6.12-.43,25.6-.25,33.75Z"/>
          <path class="cls-87" d="M295,242c-42.94,23.33-92.04,25.09-135,0,.6-2.01,2.99,0,4.01.49,40.97,19.6,86.49,23.05,127.07.1.97-.55,3.26-2.71,3.91-.59Z"/>
          <path class="cls-2" d="M248,408c4.14,8.36,8.26,18.64,9,28-1.92,1.03-5.7-.22-8-1-.16-.53-1.34-.55-2-3-.64-7.67-2.56-15.13-5.76-22.36.17-1.55,5.61-2.92,6.76-1.64Z"/>
          <path class="cls-36" d="M199,405c2.09.95.35,3.09-.13,4.37-2.44,6.64-6.18,17.79-9.39,23.62-3.01,5.46-12.03,6.51-18.01,6.99-7.7.63-41.7-.7-46.48-6-.6-.66,1.01-.92,1-.99,1.31.39,2.7.58,4,1,11.65,3.81,24.15,5.76,36.49,4.99,3.69-.23,15.91-1.82,18.8-3.2,3.22-1.54,11.41-25.72,13.72-30.78Z"/>
          <path class="cls-8" d="M305,429c2.46.87-.98,1.56-1.66,1.83-17.18,6.79-37.22,8.9-55.36,5.15.1-.47,1.04-.91,1.02-.98,2.78-.7,5.6.84,8,1,14.2.96,34.93-1.16,48-7Z"/>
          <path class="cls-9" d="M121,329c-.71,1.67-.85.96-2.07.58-2.66-.82-5.51-2.69-8.49-3.52-8.65-2.42-19.9-4.65-28.81-3.93-4.83.39-10.42,3.19-14.63,1.87-.34-1.35-.04-1.88,1.09-1.38l6.91-1.62c14.53-1.89,32.95,1.46,46,8Z"/>
          <path class="cls-54" d="M355,297c-3.9-6.72-6.82-15.24-8.72-22.78-2.92-11.59,1.51-8.88-9.28-16.22.62-2.08,2.97,0,3.92.58,8.03,4.85,6.04,12.05,8.36,20.64,1.28,4.75,3.27,9.29,5.2,13.8.45,1.04,2.58,3.34.51,3.99Z"/>
          <path class="cls-65" d="M246,396c-3.27-1.05-8.29,1-10.5,1h-16c-.4,0-2.23.98-3.93,1.07-3.4.18-8.91.54-11.57-1.07,6.62-3.01,18.99.72,26.46-2.04,5.41.37,10.5-.86,15.54,1.04Z"/>
          <g>
            <path class="cls-16" d="M290,280c2.07,1.52,4,3.68,5,6,.43,3.72,1.52,18.93.1,21.47-.09.16-.54.12-1.1.03.5.09.91.21,1.01.47.47,1.15,0,23.01-.44,24.87-.06.25-.29.46-.57.66-.23,2.98-.56,6.15-1,9.5-1.63,3.7-6.2,8.67-10,10-24.35,1.2-49.89,2.31-74.72,2.61-4.36.05-8.43-.77-12.28-2.61-2.13-1.56-3.93-3.62-5-6-.73-17.18-.55-34.4.54-51.69,2.05-11.68,6.81-15.76,18.88-16.56,22.22-1.48,46.83-1.79,69.13-1.41,3.37.06,7.32,1.36,10.45,2.66Z"/>
            <path class="cls-36" d="M290,280l-10.46-2.04c-23.9,2.31-51.65-1.41-74.98,2.1-7.66,1.15-11.98,9.48-12.44,16.56l-1.13,50.37c-3.44-7.66-1.02-10.61-.96-17.46.09-11.49-.74-24.7,1.04-35.96,3-18.98,20.7-14.91,34.46-15.54,17.09-.78,40.19-2.89,56.96-1.04,3.07.34,5.06,1.21,7.5,3Z"/>
            <path class="cls-75" d="M283,353c-3.39,1.19-12.46,1.78-16.51,1.99-7.64.4-15.38-.27-23.03-.03-12.93.41-26.96,2.48-39.96,1.04-3.07-.34-5.06-1.21-7.5-3l9.5,2c23.81-1.56,48.59-.1,72.3-2.72,1.61-.18,4.16-1.14,5.2.72Z"/>
            <path class="cls-58" d="M293,343c-2.29-1.86,1-7.41,1-9.5v-26c0-.49,1.29-1.93,1.04-2.96l-.04-18.54c2.67,6.16.92,8.13.95,13.46.06,10,.63,35.4-2.95,43.54Z"/>
            <g>
              <path class="cls-35" d="M280,335c-.26,1.52-2.92,3.69-3,4-23.02,1.4-47.74,2.35-71.31,2.12l-1.31-1.79c-1.01-1.99.24-42.81,1.53-44.64.74-1.05,1.84-1.6,3.06-1.88,24.05-1.68,47.86-2,71.44-.95l1.11,2.49c.31,13.42-.49,27.32-1.52,40.65Z"/>
              <path class="cls-83" d="M277,339c-.02.07.97.45,1.01.98-12.5.65-25.03.62-37.55.98-2.37.07-4.55,1.04-6.92,1.08-4.21.08-26.72.55-28.55-.53-4.11-2.43-1.03-14.03-.95-17.97.13-6.18-1.24-25.39,1.5-29.5,1.01-1.52,3.23-1.92,4.94-2.06l67.03-1.77c3.07.42,4.17,1,4.54,4.23,1.5,12.84-1.19,28.08-1.05,41.08l-1-.52c.98-5.67-.22-15.22-.04-21.54.1-3.7,2.82-19.13.1-21.02-1.3-.9-22.01-.56-25.6-.48-12.68.29-31.12-.33-42.98,1.02-1.88.21-3.65.52-4.99,2.01-.19,6.07-3.33,43.64-.55,45.58l71.06-1.56Z"/>
              <path class="cls-79" d="M220,305q2.21,2.48,0,0c2.46-1.56,12.29-1.7,14.57-.08,4.2,2.99.19,14.64,1.4,19.55-.97,6.58-16.46,6.03-18.45,1.5-1.31-2.98-.18-14.76.51-18.48.34-1.82.69-1.69,1.97-2.5Z"/>
              <path class="cls-68" d="M220,305c3.56.55,12.76-1.6,14.51,2,1.35,2.78.1,19.25-2.5,20.51s-10.76.99-12.47-1.55c-2.18-3.24-.04-16.6.46-20.96Z"/>
            </g>
          </g>
        </g>
      </g>
      <g>
        <path class="cls-25" d="M335,201c-2.01-.6,0-3,.49-4.01,15.31-31.71,18.3-62.88,6.64-96.62-.44-1.28-2.26-3.39-.13-4.37,13.3,33.94,11.6,73.36-7,105Z"/>
        <path class="cls-35" d="M265,40c13.4,5.03,33.18,18.11,42.51,29,1.05,1.23,1.87.81.49,2-28.83-6.48-57.19-6.32-86,0-18.63,5.67-36.38,17.79-46,35-11.71,25.26-11.12,52.03,1,77,8.6,15.08,23.04,26.45,39,33,25.24,8.07,50.86,9.14,77,7-.02.09.85.48.94.88-3,.25-4.85,2.88-6.94,4.12-14.06,9.4-33.05,14.73-50,15-2.66-.32-2.54-1.24,0-2l1.62-2.11c-38.65-4.59-73.35-26.18-93.62-58.89,2.08-1.84,6.78-9.27,8-12,4.24-14.57,3.68-29.91-2-44-4.55-7.67-11.25-13.05-20-15-.49-.41-1-1.16-1.52-2.23,2.11-12.26,5.61-23.85,10.52-34.77,11.36-13.49,26.14-25.68,43-32,25.42-10.3,56.59-10.34,82,0Z"/>
        <path class="cls-99" d="M145,180c2.88-.64,2.44.39,3.64,1.84,3.44,4.18,6.24,9.08,9.85,13.17,24.84,28.21,59.97,42.82,97.51,43-.23,1.54-4.27,1.59-5.66,1.83-4.56.79-8.79.88-13.34,1.16-23.57,4.45-47.81-3.27-69-13-5.4-3.09-10.29-6.96-15-11-3.12-3.56-6.36-6.95-10-10-3.19-3.73-6.65-7.66-9-12-3.45-6.22-1.79-9.89,5-11,1.4-1,5.51-3.57,6-4Z"/>
        <path class="cls-33" d="M123,123l2.73,1.48c4.45,10.8,6.39,21.01,4.74,32.63-1.33,9.39-4.52,18.84-15.46,12.89-3.92-2.37-1.9-1.23-4-4-6.24-10.03-6.09-22.18-2-33,2.97-5.98,6.44-10.12,14-10Z"/>
        <path class="cls-61" d="M115,170c8.59,2.59,9.59.07,12.03-7.47,4.58-14.13,1.23-26.3-4.03-39.53,29.31.45,20.68,64.33-8,47Z"/>
        <path class="cls-10" d="M131,109c-.99-.22-2.44.42-3-1-1.81-.56-4.24-.73-7.29-.51.74-2.47,1.18-4.97,1.29-7.49,4.12-10.94,10.74-19.38,18-28l-9,37Z"/>
        <path class="cls-23" d="M308,71c-1.4,1.21-1.48,1.07-3.21.81-5.55-.81-11.53-2.93-17.41-3.68-21.38-2.73-39.55-1.17-60.33,3.43-1.54.34-4.06,1.3-5.04-.56,27.15-8.26,58.8-7.26,86,0Z"/>
        <path class="cls-69" d="M216,216c.89-1.93,3.2-.43,4.52-.03,24.42,7.39,48.65,9.47,73.97,5.01,1.77,1.13-1.31.99-1.48,2.02-25.55,3.08-52.88,2.89-77-7Z"/>
        <path class="cls-31" d="M183,40c-2.51-.96,1.1-1.5,1.76-1.73,26.27-8.83,52.21-8.88,78.47,0,.67.23,4.27.77,1.76,1.73-24.54-9.21-57.46-9.2-82,0Z"/>
        <path class="cls-18" d="M177,183c-13.1-22.97-13.94-53.84-1-77,2.07.64-.06,2.95-.51,3.99-10.05,23.21-10.04,46.18,1.02,69,.49,1.01,2.49,3.42.49,4.01Z"/>
        <path class="cls-95" d="M237,241v2c-14.1.96-33.45-.84-47-5-6.3-1.93-16.18-6.67-22-10,.6-2.01,2.99,0,4.01.49,22.46,10.75,40.09,14.05,64.99,12.51Z"/>
        <path class="cls-13" d="M153,168l1.98-13.52.05-13.02-4.04-17.46c6.57,11.07,7.21,32.32,2,44Z"/>
        <path class="cls-46" d="M111,166c-7.19-9.49-7.24-22.46-2-33-2.95,11.23-3.35,22.4,2,33Z"/>
        <path class="cls-86" d="M139,184c-1.49,1.06-6.88,4.07-6.91,4.48-.07,1.02,4.37,5.09,1.91,6.52-4.02-7.42-4.56-9.25,5-11Z"/>
        <path class="cls-27" d="M153,217c-3.83-3.28-6.72-6.17-10-10l5.5,4,4.5,6Z"/>
        <path class="cls-55" d="M122,100c2.56,1.23-1.29,6.78-1,6.99h8.5c1.59,1.33-.76.98-1.5,1.01-2.65.1-5.34-.07-8,0-.46-.43,1.52-6.72,2-7.99Z"/>
        <g>
          <path class="cls-80" d="M319.7,91.3c4.13,2.86,10.38,20.52,11.64,25.85,7.18,30.44-.7,59.13-16.33,85.35-29.02,3.88-80.93,9.39-105.02-10-19.01-15.29-25.61-42.34-21.74-65.76,7.45-45,68.59-46.67,104.11-41.61,4.53.64,24.64,4.28,27.35,6.16Z"/>
          <path class="cls-82" d="M299,101c20.86,11.78,21.53,57.32,9,75-5.93,5.52-11.84,2.81-10.15-5.9,3.99-16.36,3.04-31.39-2.85-45.1-2.08-4.27-6.58-8.22-8-13-4.98-9.53,2.83-16.52,12-11Z"/>
          <path class="cls-14" d="M308,176c-2.37,3.34-5.2,5.48-8.98,2.48-4.66-3.7-.3-16.27.02-21.94.58-10.33.55-22.11-4.04-31.54.97-2.26,2.12,1.66,2.32,2.18,6.2,16.24,2.49,31.45.84,48.09.73,1.92,2.33,2.83,4.35,2.82l5.5-2.1Z"/>
          <path class="cls-21" d="M299,101c-10.13-3.06-15.15.4-12,11-4.71-4.65-1.33-14.21,5.4-13.96,2.86.1,4.49,1.76,6.6,2.96Z"/>
        </g>
      </g>
      <g>
        <path class="cls-62" d="M375,140c-8.14-18.07-7.89-37.92,0-56,2.13.98.3,3.09-.13,4.36-5.72,16.74-5.25,30.52-.02,47.29.39,1.26,2.32,3.36.15,4.35Z"/>
        <path class="cls-42" d="M491,146c-2.02-.61,0-2.99.49-4.01,5.12-10.98,8.28-23.2,7.49-35.47-.36-5.55-3.69-12.26-1.98-17.51,6,18.55,3.76,40.16-6,57Z"/>
        <path class="cls-4" d="M461,50c-.89,1.93-3.2.43-4.52.03-16.65-5-28.64-5.03-45.11.84-1.28.46-3.4,2.25-4.36.13,16.8-7.92,36.89-8.02,54-1Z"/>
        <path class="cls-26" d="M447,63c5.69,1.25,11.38,4.54,16,8-4.83.16-9.48-2.59-14.46-3.04-43.08-3.92-65.96,46.59-37.57,78.57,5.01,5.64,10.18,8.1,16.03,12.47-3.74-.26-7.74-.93-12-2-9.9-4.26-19.67-14.21-24-24-3.95-14.23-6.41-28.9,1-43,3.28-9.02,12.38-18.69,21-23,11.41-3.78,21.92-5.28,34-4Z"/>
        <path class="cls-71" d="M391,133c-5.78-13.06-6.99-30.6,1-43-4.96,13.66-5.44,24.76-1.15,38.65.39,1.26,2.32,3.36.15,4.35Z"/>
        <path class="cls-1" d="M447,63c-3.95,2.2-8.74-.14-13.48,0-5.45.16-11.1,2.06-16.16,3.87-1.28.46-3.4,2.25-4.36.13,9.84-4.93,23.22-6.37,34-4Z"/>
        <g>
          <path class="cls-88" d="M463,71c35.57,26.6,22.85,85.88-21,90-5.35.04-10.35-.62-15-2-59.19-24.15-24.07-115.2,36-88Z"/>
          <path class="cls-72" d="M427,159c5.2.91,10.54.49,15,2-8.86.83-18.82-.48-27-4,3.13-1.54,7.92,1.28,12,2Z"/>
          <path class="cls-66" d="M467.69,96.29c2.09,2.55,1.48,5.93-.7,8.21l-34.95,34.07c-5.17,3.59-21.07-14.21-21.84-17.33-1-4.05,1.8-8.75,6.07-8.08,6.11.96,8.53,12.6,15.01,10.66,4.72-1.41,23.69-25.41,29.74-29.34,1.75-1.28,5.48.36,6.67,1.8Z"/>
        </g>
      </g>
    </g>
  </g>
</svg>