<?xml version="1.0" encoding="UTF-8"?>
<svg id="Layer_1" xmlns="http://www.w3.org/2000/svg" version="1.1" viewBox="0 0 524 524">
  <!-- Generator: Adobe Illustrator 29.3.0, SVG Export Plug-In . SVG Version: 2.1.0 Build 146)  -->
  <defs>
    <style>
      .st0 {
        fill: #adefcb;
      }

      .st1 {
        fill: #b2c0d0;
      }

      .st2 {
        fill: #5b90b4;
      }

      .st3 {
        fill: #080f1a;
      }

      .st4 {
        fill: #faf9f8;
      }

      .st5 {
        fill: #070e18;
      }

      .st6 {
        fill: #060e1b;
      }

      .st7 {
        fill: #060f1a;
      }

      .st8 {
        fill: #b5c3d1;
      }

      .st9 {
        fill: #b4c4d3;
      }

      .st10 {
        fill: #d0ddeb;
      }

      .st11 {
        fill: #040c18;
      }

      .st12 {
        fill: #bdd2e1;
      }

      .st13 {
        fill: #0b101d;
      }

      .st14 {
        fill: #022337;
      }

      .st15 {
        fill: #060d17;
      }

      .st16 {
        fill: #060e18;
      }

      .st17 {
        fill: #d2dfec;
      }

      .st18 {
        fill: #000613;
      }

      .st19 {
        fill: #bbd3e2;
      }

      .st20 {
        fill: #000615;
      }

      .st21 {
        fill: #0e1620;
      }

      .st22 {
        fill: #050e1a;
      }

      .st23 {
        fill: #07101a;
      }

      .st24 {
        fill: #8ee5ae;
      }

      .st25 {
        fill: #e9f1f9;
      }

      .st26 {
        fill: #c5d0da;
      }

      .st27 {
        fill: #fbf9f8;
      }

      .st28 {
        fill: #b3c2d1;
      }

      .st29 {
        fill: #050d16;
      }

      .st30 {
        fill: #c2cdda;
      }

      .st31 {
        fill: #bbc9d7;
      }

      .st32 {
        fill: #040b17;
      }

      .st33 {
        fill: #faf8f7;
      }

      .st34 {
        fill: #050c17;
      }

      .st35 {
        fill: #d1e1eb;
      }

      .st36 {
        fill: #7aa9c9;
      }

      .st37 {
        fill: #020a15;
      }

      .st38 {
        fill: #09111c;
      }

      .st39 {
        fill: #c1ccd9;
      }

      .st40 {
        fill: #060e1a;
      }

      .st41 {
        fill: #dfedf9;
      }

      .st42 {
        fill: #09111e;
      }

      .st43 {
        fill: #5b9cc2;
      }

      .st44 {
        fill: #e5f0f6;
      }

      .st45 {
        fill: #040a14;
      }

      .st46 {
        fill: #e3edf4;
      }

      .st47 {
        fill: #050d17;
      }

      .st48 {
        fill: #78b8dc;
      }

      .st49 {
        fill: #08101b;
      }

      .st50 {
        fill: #012337;
      }

      .st51 {
        fill: #c5d2e0;
      }

      .st52 {
        fill: #07101b;
      }

      .st53 {
        fill: #e1edf6;
      }

      .st54 {
        fill: #b2c2d1;
      }

      .st55 {
        fill: #d5e0e8;
      }

      .st56 {
        fill: #0b111e;
      }

      .st57 {
        fill: #fbf9f9;
      }

      .st58 {
        fill: #060f1b;
      }

      .st59 {
        fill: #f8f8f8;
      }

      .st60 {
        fill: #07101c;
      }

      .st61 {
        fill: #2a6990;
      }

      .st62 {
        fill: #050e18;
      }

      .st63 {
        fill: #060d1a;
      }

      .st64 {
        fill: #f4f7f4;
      }

      .st65 {
        fill: #d0ddea;
      }

      .st66 {
        fill: #022236;
      }

      .st67 {
        fill: #0b131f;
      }

      .st68 {
        fill: #dfeff8;
      }

      .st69 {
        fill: #abe7ca;
      }

      .st70 {
        fill: #b3ead3;
      }

      .st71 {
        fill: #08111c;
      }

      .st72 {
        fill: #8abedf;
      }

      .st73 {
        fill: #060c16;
      }

      .st74 {
        fill: #82c6ee;
      }

      .st75 {
        fill: #bfcbd8;
      }

      .st76 {
        fill: #020611;
      }

      .st77 {
        fill: #030b16;
      }

      .st78 {
        fill: #0d3349;
      }

      .st79 {
        fill: #060e19;
      }

      .st80 {
        fill: #a9bcc8;
      }

      .st81 {
        fill: #030915;
      }

      .st82 {
        fill: #faf8f8;
      }

      .st83 {
        fill: #b3c3d1;
      }

      .st84 {
        fill: #e4edf5;
      }

      .st85 {
        fill: #050d18;
      }

      .st86 {
        fill: #5cca8d;
      }

      .st87 {
        fill: #4c8cb2;
      }

      .st88 {
        fill: #020813;
      }

      .st89 {
        fill: #cedde7;
      }

      .st90 {
        fill: #d5e5f0;
      }

      .st91 {
        fill: #bac7d6;
      }

      .st92 {
        fill: #0b141e;
      }

      .st93 {
        fill: #e3edf3;
      }

      .st94 {
        fill: #37789f;
      }

      .st95 {
        fill: #060d19;
      }

      .st96 {
        fill: #050c16;
      }

      .st97 {
        fill: #c5cfdc;
      }
    </style>
  </defs>
  <path class="st50" d="M272.5,88.2c22.3,9.4,41.1,28.1,49.9,50.7,9.2,26.2,7.4,53.4-5.2,78.2-4.1,7-9.7,13.1-14.9,19.4l28.7,16.1,13.4-11c3.1-12.6,7.7-23.5,22.4-23,2.3,0,5.7,2.3,7.1-.8.2-.2.4-.3.4-.5.5-2.7,3.5-18.5,3-19.7s-3.9-1.8-4.9-1.4c-11.1-5.1-20.3-13.3-25.3-24.6-4.9-14.1-4.9-27.6,0-41.7,4.6-10.5,13.5-19.7,23.8-24.6,13.6-4.9,26.4-5,40.2-.7,12.3,5.1,22.7,16.4,26.8,29.1,3.3,14.8,2.2,28.5-4.5,42.5-8.3,14.3-22.8,23-39.4,23.9l-3.8,24.5c8.3-.7,15.3,4.7,18.6,11.9,3.4,10.3,2.6,20.4-.7,30.5-1.7,3.8-4.9,8.2-8.2,10.8-2.9,2.3-7,3.3-9,5.2s-4.5,7-6.7,9.7c-8.7,10.5-20.2,20.3-32.8,25.7-16.4,5.9-32.2,5.9-48.4.7-1.7,8.1-3.7,17.7-1.9,26,7.7,19.7,7.2,43,3.4,62.6.5.1,7.9,5.4,8.9,6.3,6.4,5.6,10.6,14,9.7,22.7,5.2.2,10.7.4,15.6,2.2,4.1,2.1,2.8,2.6-.8,3.9s-14.7,2.4-19.6,2.6c-59.4,2.3-119.4,2.2-178.6.4-9.3-.3-18.8-.7-27.7-2.4s-4.7-5,1.9-5.5l18.6-1.6c0,0-.9.9-.2-.4,0-.2,0-.5,0-.7-.1-16.8,5.7-33.2,11.9-48.4-.1-.1-.5,0-.7,0-9,1.3-17,0-25.3-3.7-15.3-9.2-15.8-23.4-14.9-39.7-3.5-2-6.5-4-9-7.2-2.3-4-4.1-8.1-3.7-13.2,1.5-32,3.8-64,6.3-96,.8-3.6,1.9-7.3,3.4-10.8,2.5-3.7,7.7-8.1,11.9-9.7,1.6,0,3.3-.3,4.8-.7,10.1-.8,21.4-.8,31.7,0-9.6-.5-19.2-.7-29.1-.7l28.3-.8c-1-1.4-3-2.1-4.5-3.3s-3.3-3.2-4.5-4.8c-5.8-12.3-5.6-28.5,1.5-40.2,4-5.2,3-6.5,5-12.5,8.2-24.7,24.7-44,48.6-54.6,25.7-9.9,52.4-10.3,78.2-.7Z"/>
  <g>
    <path class="st37" d="M132.4,436.1c0,.1.9.1.7.7-6.7,1.8-18.7.2-24.8,3.1-3.8,1.8,4.9,3.2,6,3.4,20.7,3.7,45,2,66.1,2.4,46.7.8,100.5,3.5,146.7-1.5,4.3-.5,10.4-1,13.8-3.3l-2.7-1,.5-.8c.9.3,2,.5,3,.8,2.3,3.5-8.9,4.8-10.9,5.1-10.7,1.5-21.3,1.2-32,1.6-48.3,1.7-97.6,1.5-146,0-7.5-.2-41.6,0-45.9-4.1s-1-1.3-.7-2.2c.9-2.9,22.4-4.1,26.1-4.1Z"/>
    <path class="st47" d="M94.4,336.3c-5.1-6.7-4.8-12.4-4.5-20.5.7-17.7,3.2-36.5,4.5-54.4.9-12.3-.6-35.2,6-45.1l-3,10.8c-1.1,34-6.2,68.1-5.8,101.9l2.8,7.3Z"/>
    <path class="st96" d="M304.5,407.8c0,0-.2.9-.7.7,3.4-17.2,4.2-34.3.5-51.6-1-4.7-3.9-10.7-4.3-15.1s.7-16.2,1.5-20.9.6-1.3,1.5-1.9c.3,6.8-2.7,15.5-2.3,22,.3,4.3,3.8,12.4,4.9,17.5,3.2,15.7,2.9,33.7-1.1,49.2Z"/>
    <path class="st79" d="M272.5,88.2c-.7,1.6-2.3.2-3.3,0-25.2-8.9-46.7-8.6-71.7.7-1,.4-2.6,1.6-3.3,0,24.5-10.8,53.6-11.2,78.2-.7Z"/>
    <path class="st71" d="M351.4,318.4c-15.6,6.7-32.7,7.1-48.4.7.6-.4.4-.8,1.6-.6,3.3.4,8.2,3,12.2,3.5,10.6,1.4,21.3,0,31.3-3.5s2.5-1.7,3.3,0Z"/>
    <path class="st52" d="M139.1,196.3c-7.1-10.3-6.2-30.2,1.5-40.2l-3,7.1c-2.6,7.3-1.1,15.5-1.4,23.1l2.9,10.1Z"/>
    <path class="st49" d="M132.4,435.4c-1.3-15.5,5.1-34.7,11.9-48.4.9.7.9.2.4,1.5-1.3,3.7-3.9,7.9-5.2,11.9-2.4,7.1-5.4,18.4-6.3,25.8s.7,6.6-.8,9.2Z"/>
    <path class="st38" d="M408.1,267l2.3-13c-.2-2.9.3-6.1,0-9-.3-3-2.6-6-1.5-8.6,4.5,9.6,3.5,21-.7,30.5Z"/>
    <path class="st76" d="M119.7,205.2c8-.5,18.3-.3,26.5,0s2.8-.6,2.6.7h-31.7c-.8,0-3.8,2.7-4.8.7,2.8-1.1,4.5-1.3,7.5-1.5Z"/>
    <path class="st49" d="M143.6,387c-8.5,2.4-17.8.8-25.3-3.7l13.9,3.6c4.3.9,7.6-1.4,11.5,0Z"/>
    <path class="st92" d="M372.3,196.3c.7-1.7,5.1.7,5.2,1.2,1.1,4.5-3.6,16.2-3,21.5l-.7-1.1,3-20.1c-1.6-.3-3-.9-4.5-1.5Z"/>
    <path class="st33" d="M234.5,374.3c0,.6,2.5,5.1,3,5.2,3.1,6,4.6,14.8,4.6,21.7l-3.9,33.5h-26.8c1.7-4.1.5-10-1.4-13.9s-3.8-4.8-3.8-5.7,7.6-12.9,8.8-15.4c3.5-8.7,7.2-17.2,11-25.6,1-.9,7.9-1.2,8.4.3Z"/>
    <path class="st4" d="M292.6,398.9c.7-.2,1.1-1.1,2.2-.7,1.2,4.3-4.6,11.9-3.6,15.1s10.7,6.4,13.2,8.4c4.8,3.9,7.7,7.8,4.5,13.7l-.4.7c-15,.7-30.2.5-45.8-.7l-11.2-.7c-1.1.6-1.9-.3-1.5-1.5,0-2.7,0-5.5,0-8.2-.7-.2-.6-.5,0-.7,3.5-.9,2.3,7.2,1.9,9.7,1.1-2.5,9.2-2.2,10.8,0-.7-.2-1.4-.4-2-.8-2.9-2-1.8-24.1-1-28.3l1.5-1.4c10.6-.1,21.1-2.1,31.3-4.5Z"/>
    <path class="st82" d="M129.4,317.7c5.2-1.4,22.9,1.9,26.1,5.7-.4,4.1-.6,8.3-.8,12.4,3.2,4.4,9.4,14.2,6.7,19.6s-5,3.3-4.4-.4c-.8-1-.9-1.4-2.2-2.2-6.9-1.3-8.2,0-8.3,6.5.9,4.1,1.1,7.9.8,11.4,0,.5.1,1.1,0,1.5-2.8.4-9.3-2.5-11.6-4.5-13-11.3-12.8-28.6-12-44.3-.3-1.4-.6-2.7-1-4,1.6-.4,5.4-1.4,6.7-1.5Z"/>
    <path class="st82" d="M196.5,404.9c1.1,0,2.8-1.4,3.7-.4-2.2,1.7-3.4,4.9-5.3,6.7s-5.5,2-5.2,5.2,8.7,5.2,10.1,10.1-.1,5.1-1.9,8.2c0,.3,0,.5,0,.6-1.5,1.3-32.2,1.1-37.6.9s-1.7-.4-2.6-.8c-.7-.2-1.7-.7-2.2-1.2-4.6-5.6,2.5-25.2,4.8-31.5l1.8-.7c11.2,2.4,22.7,3,34.3,3Z"/>
    <path class="st9" d="M173.4,238.7l-13.4,11.5c-15.5,15.3-29.8,32.9-33.4,55.1l-3.8,1.2-4.9,1.4c-1.1-.1-1.2-1.4-.3-3.7.7-4.5,1.5-9,2.2-13.4,5.7-19,21.1-41.2,38.1-51.7,1.6-1,8.1-4.6,9.4-4.8,3.6-.6,4.2,2.8,6.1,4.4Z"/>
    <path class="st75" d="M122.7,319.2c.9.9,2.1.2,2.3,1.8.7,5.5-.5,12.8,0,18.7.7,9.7,4.2,21.2,12.3,27.2s7.2,2.6,10.1,5.2c-.3.9-.8,1-1.5,1.5-7.7,2.7-15.6,2.7-23.1-.7-2.8-1.8-5.5-7.4-6-7.5-.7-.2-.6-.5,0-.7-.8-13.7-.9-27.5-.4-41.3l1.1-1.9c2.1-1.1,2.7-1.6,5.2-2.2Z"/>
    <path class="st27" d="M366.3,279.7c-4,5-8.6,9.5-14,13.5h-1.6c-7.6-6.2-14.9-18.2-14.7-28.2,0-1.7,8.3-7.8,10.2-9.1.6,5.6,5.2,12,9.7,15.2s4.3,1.8,5.9,3.1c1.4,1.1,3,4.2,4.5,5.5Z"/>
    <path class="st57" d="M398.4,240.2c4.2,5.3,3.1,15.8,0,21.6-.3.7-2.4,3.7-3,4.5-5,2.9-9.9.6-13.8-3-.5,1.6-1.4,2.4-2.6,2.3.4-10,1.9-20,4.5-29.8,4.7-1.1,12.3,0,14.9,4.5Z"/>
    <path class="st30" d="M338.8,297.6c2.3,2.5,6.1,5.5,8.9,7.5,2.6,2.3-5.7,4.4-8.2,5-10.8,2.7-25.4,2.5-34.6-3.8l-.5-4.9c-1.1-.9-.9-5.4.7-5.2,0,1.5,0,3,0,4.5l.7-5.2c9.3,2.5,19.7,5.7,29.4,3.7s2.6,0,3.4-1.5Z"/>
    <path class="st87" d="M107.8,248.4c6.4,0,12.9.2,19.4.7l.7.8c-.4,1.4-5.4,7.3-6.7,9.3-7.5,11.9-12.3,23.9-15.6,37.6-.9-2.5-1.4-5.2-1.5-8.2.2-10.3,2.2-20.7,3-30.9s-.6-8.8.8-9.3Z"/>
    <path class="st4" d="M359.9,232.3c4.5-4.3,11,.2,11.6,5.4.3,2.6-3.1,22.4-4.5,23.8-3.6,3.5-8-2.5-9.3-5.6-2.6-6-2.9-18.8,2.1-23.6Z"/>
    <path class="st43" d="M130.2,217.9c.6.2,1.4.5,1.4,1,0,1.8-.9,16-1.3,16.7s-1,.8-1.6.9c-6.6.5-13.5.6-20.5.4.1-2.2,0-4.3-.4-6.3.4-4.7,3.8-11.9,8.9-12.7,4.5-.4,9-.4,13.4,0Z"/>
    <path class="st54" d="M160.7,401.1c.8-.7,1.6-.3,1.5.7-3,10-9.9,23.7-4.5,33.5-.4,1.2-1.1,1.2-1.5,0l-9.7-.7c-.3-.5-.5-.8-.7-1.5-.5-8.1.2-16.3,2.2-24.6.8-3,1.7-5.4,3-8.2.6-.5,1.2-1.2,1.6-2.2,2.7,1.6,5.4,2.6,8.1,3Z"/>
    <path class="st91" d="M179.3,299.1c1,1.3.7,2.4.6,3.9-1.1,13.4-4.8,26.4-6.5,39.7-.3,2.1-.6.2-1.5,1.1-.8-3.3-5.7-10.3-6-12.3-.4-3.3,2.9-12.9,3.7-16.7,0-3.2,1.1-5.7,3-7.5,2-3.5,4.3-5.2,6.7-8.2Z"/>
    <path class="st61" d="M147.3,217.9c-.5,2.8-.6,5.6-.4,8.6-1.9,2.2-3,4.6-3.4,7.1-.6.5-3.3,3.7-3.5,3.7-2.6.6-8.2,0-11.4,0-.7-.2-.6-.5,0-.7l1.5-18.6c-.3-.3,0-.5.7-.7.2,0,.5,0,.7,0,5.3.3,10.5.5,15.6.7Z"/>
    <path class="st39" d="M366.3,279.7c.3.2.5.6.7.7l9.4,1.6c.5.1.5.7.3,1.3-1.6,2.8-12.9,15-15.5,15.5s-8.6-4.2-10.6-5.8c1.3-3.1,5.5-4.7,8.2-7.1s3.9-6,7.4-6.3Z"/>
    <path class="st83" d="M169.6,363.1c.9,1.1.3,2.3.2,3.5-1,7-2.2,14.8-3.8,21.6s0,1.9-1.6,2.5c-.6,1.2-2.7.4-3-.7-.2-1.1-4.9-2.1-5-3.3s2.5-6.4,2.8-7.9c.6-1.2.7-1.3.5-.5l1-8.4c1.8-.9,3.3-1.9,4.4-3,1.5-1.5,3.4-2.5,4.5-3.7Z"/>
    <path class="st94" d="M152.5,217.1c2.7,0,6.7,3.3,7.4,5.9-5.9,2.7-11.4,6.4-16.4,10.4-3.1-4.4,1.2-4.6,1.9-7.4s-2-5.5,1.8-8.2c1.6-.5,3.3-.7,5.2-.7Z"/>
    <path class="st26" d="M395.4,266.3c-3.2,3.9-7.2,6.8-12.5,4.6s-3.3-3.8-3.9-3.9c-.6-.5-.6-1,0-1.5l1.9-5.2c2.2,2.5,5.8,5.4,9.1,5.8s3.6-1.2,5.4.1Z"/>
    <path class="st40" d="M281.4,237.2c1,1.1-.8,1.5-1.5,1.9-21.2,11.2-45.7,13-68.9,7s-3.9-.6-1.9-1.4c2.7,0,5.6.4,8.7,1.4l26.4,2.3c12-.8,26.9-5,37.3-11.2Z"/>
    <path class="st58" d="M129.4,317.7l-1.9-.7c4.9-1.2,25.9,2.1,28.3,6s-1.3,10-.2,13.6,2,2,2.7,3.2c2.3,4.1,7.6,15.7,1.1,18s-3.8-.6-2.4-2.8c.7.8.2,2.6,1.8,2.2,4.5-1.7,1.9-9.8.5-13.2s-5-6.6-5.3-8.1c-.7-3.8,1.4-8.4,1.2-12.3-7.3-3.7-17.5-6.6-25.8-6Z"/>
    <path class="st5" d="M292.6,398.9c-10.6,3.5-20,4.8-31.3,4.5-1.6,1.5-3.7,1.8-6.5,1-1.5,5.7-2.6,12.1-3.1,18.2l-1.5,1.7v.7l-.8,8.2-.7-7.1,3.8-24.1c5.4-.4,10.4.9,15.9.6s14.5-2,20.9-3.7c1-.3,2.7-1.5,3.4,0Z"/>
    <path class="st95" d="M238.2,436.1c-.7-.2-.6-.4,0-.7,0-.2,0-.5,0-.7.4-10.4,2.2-18.9,3-28.7.7-9.2-.9-17.8-3.7-26.4,0,0,.2-1.2.7-.7,1.8,1.6,5.3,20.7,4.5,24.2l-4.5,33.2Z"/>
    <path class="st13" d="M251.6,434.7l11.2.7c9.8.2,19.7-.3,29.5,0s11.4,2.1,16.7,0c0,.1,1.7,1.2-1.8,1.5-17.6,1.6-36.7-1.7-54.5-.7-1.1,0-1.9-.3-2.7-1.1-1.2-1.3,0-1.8,0-1.9.3.7.8,1.2,1.5,1.5Z"/>
    <path class="st10" d="M116.7,364.6l-.9-1c-1.4-13.5-1.7-27.1-.6-40.7.8-.4,1.4-1.1,2.2-1.5l-.7,43.2Z"/>
    <path class="st48" d="M105.6,296.8c0,5.9-1.8,13-2.2,19s.2,8.2,0,12.3c-1.4-.6-2.2-4.3-2.2-5.6,0-7.7,2-16.8,2.2-25,.4-1.6.6-3.4.7-5.2,0-1.2,0-2.5,0-3.7.6,1.7,1.5,6.3,1.5,8.2Z"/>
    <path class="st46" d="M304.5,301.3c1.4,1,.4,3.3.9,4.7.6,2.1,13.3,4.7,15.9,4.9,7.7.7,18.7-.6,25.5-4.3,1.4-.8,0-1.1.9-1.7.6.4,1.5.7,2.2.8,0,.2.1.6,0,.7-.2.2-3.9,2-4.5,2.2-7.9,3.3-19.4,4.2-27.7,2.8s-11.2-2.6-12.5-3.9-.7-4.5-.7-6.4Z"/>
    <path class="st88" d="M198,434.7c0,.1,1.5,1.1-1.1,1.5-7.8,1.1-19.9-.2-28.3,0-1.8,0-3.4.8-5.2.8-5.5.1-11.5.4-16.8-.8,0-.3.8-.7.8-.7,2.3-.9,6.1-.4,8.9,0h1.5c12,0,24.2.4,36.2,0s2.8,0,4.1-.8Z"/>
    <path class="st42" d="M215.1,399.6c-1.5-.4,0-2.2.4-3,1.6-3.4,9.4-22.2,10.4-23.1,1.8-1.6,6.8-.4,9.3-.7.3.7-.8,1.4-.7,1.5-1.1-.7-7.7,0-8.1.1-.7.4-5,12.4-5.9,14.5-1.7,3.6-3.5,7.2-5.3,10.7Z"/>
    <path class="st15" d="M196.5,404.9c-11.3.8-23.4.4-34.3-3s-.9-.5-1.5-.7c-1.4.3-3.1-.1-3.7-1.5.7-1.6,2.3-.2,3.3,0,5.4,1.9,12.4,3.8,18.1,4.3,6,.5,12.5-.8,18.2.8Z"/>
    <path class="st22" d="M379,265.5c0,.5,0,1,0,1.5,0,0-.4.7-.7.8-.6-10.1,3-20.6,3.9-30.8.2-.7.6-1.1,1.3-1.2-.4,9.5-4.5,20.5-4.5,29.8Z"/>
    <path class="st20" d="M115.3,322.9c.8,13.7-1.7,28.4,1.5,41.7v.7c0,0-.4.6-.7.7-.6-2.2-1.4-3.9-1.6-6.3-1-11.9.8-25.2,0-37.3.1-1,.7.4.7.4Z"/>
    <path class="st62" d="M154.7,352.7c-1.9,1.3-6.2-1.3-7.3,2s1.1,12.7,1.4,17l-1.5-1.1c.1-4.8-3.6-14.7.3-17.9s4.8-1.3,7.1,0Z"/>
    <path class="st51" d="M145.8,433.2c-2.7-7.1.2-17.1,2.2-24.6,1.4.7.6,2.6.4,3.8-1.4,7.1-3.7,13.3-2.7,20.8Z"/>
    <path class="st55" d="M145.8,373.6c-6.1,4.2-17,3.3-23.1-.7l10,2.3,13.1-1.5Z"/>
    <path class="st45" d="M398.4,240.2c1.1-1,1.6.7,1.9,1.5,2.1,6.2,1.5,12.8-.6,18.8s-.6,3.2-1.3,1.3c2.4-5.9,3.3-15.9,0-21.6Z"/>
    <path class="st35" d="M252.3,371.3l-4.5.8c-.7.8,6.4,14.5,3.7,17.1-1.6-5.9-2.4-12-5.2-17.5,0-.3,4-.8,5.2-1.9.2.5.5,1,.7,1.5Z"/>
    <path class="st74" d="M107.8,230.5c1.6.9.3,5.5.7,6,.7.7,17.4-.5,20.1,0v.7c-6.9.1-13.9,0-20.9,0,.1-2.2-.2-4.5,0-6.7Z"/>
    <path class="st18" d="M238.2,435.4c0,.2,0,.5,0,.7l-26.8-.4,26.8-.4Z"/>
    <path class="st65" d="M165.2,366.9s.9.5,0,1.1c-1.2.9-2.7.8-3.7,2.4s-.7,6.3-1.6,8.8l-.8-.4c.4-1.8.5-9.1.9-9.6s4.3-1.6,5.1-2.3Z"/>
    <path class="st36" d="M107.8,248.4c1.2-.4,17.6-.3,19.7,0,.7,0,.5,1.1.4,1.5-5.5-1-12.7-1.2-18.3-.8s-.9,1.2-1.1,2.3l-.7-3Z"/>
    <path class="st2" d="M152.5,217.1c-.9,0-3.1.8-5.2.7-5,0-10.9.6-15.6-.7,6.9,0,13.9,0,20.9,0Z"/>
    <path class="st90" d="M117.5,304.3c-.3.4-.6.1-.7-.7.6-4,1.8-8.8,3-12.7,1.4.6.3,2.4,0,3.4-.7,3.3-1.2,6.8-2.3,10Z"/>
    <path class="st17" d="M157,399.6c1.2.5,2.5,1.1,3.7,1.5-2,2.2-6.2-2.6-7.8-2.2s-1,3.5-1.9,1.5c.4-.8.5-2.1.8-3,.6-.4,4.2,1.8,5.2,2.2Z"/>
    <path class="st27" d="M367.1,280.4l10.4.7c.2,1-.3,1.5-.7,2.2-3.1-1.9-6.7-.9-9.7-3Z"/>
    <path class="st72" d="M130.9,217.1c0,.3-.4.7-.7.7-4.1.4-7.9,0-12.3.6s-1-.6-1.1-.6c4.6-1.3,9.5-.7,14.2-.7Z"/>
    <path class="st89" d="M117.5,304.3c0,1,0,2,0,3l5.2-.7h.7c-1.5.2-4.5,1.5-6,2.2-.4-.1-1,.1-1.5,0,1.1-1.7.5-3.5.8-5.2.4,0,.7.4.7.7Z"/>
    <path class="st68" d="M172.6,307.3c-1.5,2.7-2.9,4.5-2.2,7.8l-.7-.4c.6-2.8-1.1-5.7,3-7.5Z"/>
    <path class="st41" d="M156.2,435.4h-8.9c-.2-.5-.7-.6-.7-.7l.4-.6c3,1.2,6.8-.3,9.2,1.3Z"/>
    <path class="st87" d="M104.1,292.4c0,2.1.4,3.9.7,6l-1.5-.7c0-1.6-.6-4.2.7-5.2Z"/>
    <path class="st28" d="M261.3,403.4c-.1,9.7-3,21.7,1.5,30.5h-10.8c-1.7,0-1-6.4-1.1-7.9s-.8-1.7-.8-1.8c0-6.9,2.4-14.7,3-21.6,2.8.4,5.3.6,8.2.7Z"/>
    <path class="st50" d="M262.8,435.4c-3.7,0-7.9.6-11.2-.7,3.5.4,8.1-.9,11.2.7Z"/>
    <g>
      <path class="st4" d="M186.8,247.7c32.3,16.7,68.5,17.4,100.6,0,1.3-.7,5.1-3.6,6-3.4,8.1,5.6,17.1,9.8,25.3,15.3,2.2,0,5.2,2.6,6.2,4.7,1.4,8.4,3.9,16.6,7.2,24.4,1.6,2.7,4.5,6.6,6.7,8.9,2.2,2.7-3.7,3.2-5.9,3.4-8.9.6-17.1-1.2-25.6-3.7-.7,5.1-3.8,4.2-2.1-1.2l-.7-.4,1-18.5c1.5-11.2-10.3-11.5-10.6-.3-.9,21.5-2.6,42.9-5,64.2l.7,5c4.2,12.8,8.5,26.5,5.7,40.1-.2.1-1.1.6-1.5.7-10.5,5.1-24.3,7.1-35.8,5.2l-1.7-1.5c-.9-6-3.1-11.7-5.7-17.2l.6-2.2c-1.4.1-1.8-.5-.7-1.5,2.6-2.4,2.6-6.2-.7-7.5-10.4.1-20.8.3-31.3.7-2.5,1.1-2.7,3.7-3.7,6-1.5,5.5-3.7,12.9-6.5,18s-6.5,7.1-13.6,7.4-22.1.6-30.3-2.6c-.4-.2-.7-.6-1-1.2,1-9.4,2.7-18.6,5.2-27.6,4-4.4,3.6-13.8,2.2-19.4,2.4-15.1,4.8-30,7.5-44.7,2.5-3.2,8.1-8.5,8.3-12.3.2-5.5-3.2-7.4-8.3-6l-19.7,23.5c-1.5,2.2-1,6-1.9,8.1-10.5-3.6-21.8-7.1-33.2-5.2l-1-.7h-.7c-.6-1.6,1.1-2.2,2.5-2.3,4.5-26.3,25.7-49.1,46.4-65.9l1.8.4c3.8,3,9.1,6.5,13.4,8.9Z"/>
      <g>
        <path class="st32" d="M305.2,296.1c-1.3,1-.8,3.6-.7,5.2-1.6,7.1,7.8,9.2,13.3,9.7,10,.9,18.1.5,27.6-2.2,1.8.9-3.3,2-3.5,2.1-10.4,3-19.5,3.5-30,.6-1.5-.4-7.4-2.3-8.2-3-1.8-1.5.6-15.4.7-18.6.3-5.6.3-11.3.6-17-3-6.3-8.8-3.6-9.5,2.8-1.1,10-.7,21.8-1.5,32-.9,10.5-3.8,24.2-3.7,34.3s5.6,18.2,6.6,24.7,1.2,12.8.5,18.9c-.2.5-.8.5-1.1.7.4-9.5,0-18-2.1-27.3-1.2-5.1-4.2-11.4-4.6-16.3-.8-10.6,2.8-28.8,3.7-40.3.8-9.2.2-20.1,1.5-29,.8-5.4,8.4-7.5,10.6-2.5,2,4.6-.3,19.1-.2,25.1Z"/>
        <path class="st85" d="M287.4,247.7c-32,17.4-68.6,18.7-100.6,0,.4-1.5,2.2,0,3,.4,30.5,14.6,64.4,17.2,94.7,0,.7-.4,2.4-2,2.9-.4Z"/>
        <path class="st1" d="M252.3,371.3c3.1,6.2,6.2,13.9,6.7,20.9-1.4.8-4.2-.2-6-.7-.1-.4-1-.4-1.5-2.2-.5-5.7-1.9-11.3-4.3-16.7.1-1.2,4.2-2.2,5-1.2Z"/>
        <path class="st34" d="M215.8,369.1c1.6.7.3,2.3,0,3.3-1.8,4.9-4.6,13.3-7,17.6s-9,4.8-13.4,5.2-31.1-.5-34.6-4.5.8-.7.7-.7c1,.3,2,.4,3,.7,8.7,2.8,18,4.3,27.2,3.7s11.9-1.4,14-2.4,8.5-19.2,10.2-22.9Z"/>
        <path class="st6" d="M294.8,387c1.8.6-.7,1.2-1.2,1.4-12.8,5.1-27.7,6.6-41.2,3.8,0-.3.8-.7.8-.7,2.1-.5,4.2.6,6,.7,10.6.7,26-.9,35.8-5.2Z"/>
        <path class="st7" d="M157.7,312.5c-.5,1.2-.6.7-1.5.4-2-.6-4.1-2-6.3-2.6-6.4-1.8-14.8-3.5-21.5-2.9-3.6.3-7.8,2.4-10.9,1.4-.3-1,0-1.4.8-1l5.1-1.2c10.8-1.4,24.5,1.1,34.3,6Z"/>
        <path class="st52" d="M332.1,288.6c-2.9-5-5.1-11.4-6.5-17-2.2-8.6,1.1-6.6-6.9-12.1.5-1.6,2.2,0,2.9.4,6,3.6,4.5,9,6.2,15.4,1,3.5,2.4,6.9,3.9,10.3s1.9,2.5.4,3Z"/>
        <path class="st63" d="M250.9,362.4c-2.4-.8-6.2.7-7.8.7h-11.9c-.3,0-1.7.7-2.9.8-2.5.1-6.6.4-8.6-.8,4.9-2.2,14.1.5,19.7-1.5,4,.3,7.8-.6,11.6.8Z"/>
        <g>
          <path class="st14" d="M283.6,276c1.5,1.1,3,2.7,3.7,4.5.3,2.8,1.1,14.1,0,16s-.4,0-.8,0c.4,0,.7.2.8.3.4.9,0,17.1-.3,18.5s-.2.3-.4.5c-.2,2.2-.4,4.6-.7,7.1-1.2,2.8-4.6,6.5-7.5,7.5-18.1.9-37.2,1.7-55.7,1.9-3.2,0-6.3-.6-9.2-1.9-1.6-1.2-2.9-2.7-3.7-4.5-.5-12.8-.4-25.6.4-38.5,1.5-8.7,5.1-11.7,14.1-12.3,16.6-1.1,34.9-1.3,51.5-1.1,2.5,0,5.5,1,7.8,2Z"/>
          <path class="st34" d="M283.6,276l-7.8-1.5c-17.8,1.7-38.5-1-55.9,1.6s-8.9,7.1-9.3,12.3l-.8,37.5c-2.6-5.7-.8-7.9-.7-13,0-8.6-.5-18.4.8-26.8,2.2-14.1,15.4-11.1,25.7-11.6s29.9-2.2,42.4-.8,3.8.9,5.6,2.2Z"/>
          <path class="st73" d="M278.4,330.4c-2.5.9-9.3,1.3-12.3,1.5-5.7.3-11.5-.2-17.2,0-9.6.3-20.1,1.8-29.8.8-2.3-.3-3.8-.9-5.6-2.2l7.1,1.5c17.7-1.2,36.2,0,53.9-2s3.1-.9,3.9.5Z"/>
          <path class="st56" d="M285.9,322.9c-1.7-1.4.7-5.5.7-7.1v-19.4c0-.4,1-1.4.8-2.2v-13.8c2,4.6.7,6.1.7,10,0,7.5.5,26.4-2.2,32.4Z"/>
          <g>
            <path class="st33" d="M276.2,316.9c-.2,1.1-2.2,2.7-2.2,3-17.1,1-35.6,1.8-53.1,1.6l-1-1.3c-.8-1.5.2-31.9,1.1-33.3s1.4-1.2,2.3-1.4c17.9-1.3,35.7-1.5,53.2-.7l.8,1.9c.2,10-.4,20.4-1.1,30.3Z"/>
            <path class="st81" d="M274,319.9c0,0,.7.3.8.7-9.3.5-18.7.5-28,.7-1.8,0-3.4.8-5.2.8-3.1,0-19.9.4-21.3-.4-3.1-1.8-.8-10.5-.7-13.4,0-4.6-.9-18.9,1.1-22s2.4-1.4,3.7-1.5l49.9-1.3c2.3.3,3.1.7,3.4,3.2,1.1,9.6-.9,20.9-.8,30.6l-.7-.4c.7-4.2-.2-11.3,0-16,0-2.8,2.1-14.3,0-15.7s-16.4-.4-19.1-.4c-9.4.2-23.2-.2-32,.8s-2.7.4-3.7,1.5c-.1,4.5-2.5,32.5-.4,34l52.9-1.2Z"/>
            <path class="st77" d="M231.5,294.6q1.6,1.8,0,0c1.8-1.2,9.2-1.3,10.9,0,3.1,2.2.1,10.9,1,14.6-.7,4.9-12.3,4.5-13.7,1.1s-.1-11,.4-13.8.5-1.3,1.5-1.9Z"/>
            <path class="st66" d="M231.5,294.6c2.7.4,9.5-1.2,10.8,1.5s0,14.3-1.9,15.3-8,.7-9.3-1.2,0-12.4.3-15.6Z"/>
          </g>
        </g>
      </g>
    </g>
    <g>
      <path class="st23" d="M317.2,217.1c-1.5-.4,0-2.2.4-3,11.4-23.6,13.6-46.8,4.9-72s-1.7-2.5,0-3.3c9.9,25.3,8.6,54.7-5.2,78.2Z"/>
      <path class="st33" d="M265,97.2c10,3.7,24.7,13.5,31.7,21.6.8.9,1.4.6.4,1.5-21.5-4.8-42.6-4.7-64.1,0-13.9,4.2-27.1,13.3-34.3,26.1-8.7,18.8-8.3,38.8.7,57.4,6.4,11.2,17.2,19.7,29.1,24.6,18.8,6,37.9,6.8,57.4,5.2,0,0,.6.4.7.7-2.2.2-3.6,2.1-5.2,3.1-10.5,7-24.6,11-37.3,11.2-2-.2-1.9-.9,0-1.5l1.2-1.6c-28.8-3.4-54.6-19.5-69.7-43.9,1.6-1.4,5.1-6.9,6-8.9,3.2-10.9,2.7-22.3-1.5-32.8-3.4-5.7-8.4-9.7-14.9-11.2-.4-.3-.7-.9-1.1-1.7,1.6-9.1,4.2-17.8,7.8-25.9,8.5-10.1,19.5-19.1,32-23.8,18.9-7.7,42.2-7.7,61.1,0Z"/>
      <path class="st97" d="M175.6,201.5c2.1-.5,1.8.3,2.7,1.4,2.6,3.1,4.7,6.8,7.3,9.8,18.5,21,44.7,31.9,72.6,32-.2,1.2-3.2,1.2-4.2,1.4-3.4.6-6.5.7-9.9.9-17.6,3.3-35.6-2.4-51.4-9.7-4-2.3-7.7-5.2-11.2-8.2-2.3-2.7-4.7-5.2-7.5-7.5-2.4-2.8-5-5.7-6.7-8.9-2.6-4.6-1.3-7.4,3.7-8.2,1-.7,4.1-2.7,4.5-3Z"/>
      <path class="st31" d="M159.2,159l2,1.1c3.3,8,4.8,15.7,3.5,24.3s-3.4,14-11.5,9.6c-2.9-1.8-1.4-.9-3-3-4.6-7.5-4.5-16.5-1.5-24.6,2.2-4.5,4.8-7.5,10.4-7.5Z"/>
      <path class="st59" d="M153.3,194c6.4,1.9,7.1,0,9-5.6,3.4-10.5.9-19.6-3-29.5,21.8.3,15.4,47.9-6,35Z"/>
      <path class="st8" d="M165.2,148.6c-.7-.2-1.8.3-2.2-.7-1.3-.4-3.2-.5-5.4-.4.6-1.8.9-3.7,1-5.6,3.1-8.1,8-14.4,13.4-20.9l-6.7,27.6Z"/>
      <path class="st21" d="M297,120.3c-1,.9-1.1.8-2.4.6-4.1-.6-8.6-2.2-13-2.7-15.9-2-29.5-.9-44.9,2.6s-3,1-3.8-.4c20.2-6.2,43.8-5.4,64.1,0Z"/>
      <path class="st67" d="M228.5,228.3c.7-1.4,2.4-.3,3.4,0,18.2,5.5,36.2,7.1,55.1,3.7,1.3.8-1,.7-1.1,1.5-19,2.3-39.4,2.2-57.4-5.2Z"/>
      <path class="st29" d="M203.9,97.2c-1.9-.7.8-1.1,1.3-1.3,19.6-6.6,38.9-6.6,58.5,0s3.2.6,1.3,1.3c-18.3-6.9-42.8-6.9-61.1,0Z"/>
      <path class="st16" d="M199.4,203.7c-9.8-17.1-10.4-40.1-.7-57.4,1.5.5,0,2.2-.4,3-7.5,17.3-7.5,34.4.8,51.4.4.8,1.9,2.5.4,3Z"/>
      <path class="st93" d="M244.1,246.9v1.5c-10.5.7-24.9-.6-35-3.7s-12.1-5-16.4-7.5c.4-1.5,2.2,0,3,.4,16.7,8,29.9,10.5,48.4,9.3Z"/>
      <path class="st11" d="M181.6,192.5l1.5-10.1v-9.7s-3-13-3-13c4.9,8.2,5.4,24.1,1.5,32.8Z"/>
      <path class="st44" d="M150.3,191c-5.4-7.1-5.4-16.7-1.5-24.6-2.2,8.4-2.5,16.7,1.5,24.6Z"/>
      <path class="st84" d="M171.1,204.4c-1.1.8-5.1,3-5.1,3.3,0,.8,3.3,3.8,1.4,4.9-3-5.5-3.4-6.9,3.7-8.2Z"/>
      <path class="st25" d="M181.6,229c-2.9-2.4-5-4.6-7.5-7.5l4.1,3,3.4,4.5Z"/>
      <path class="st53" d="M158.5,141.9c1.9.9-1,5-.7,5.2h6.3c1.2,1-.6.7-1.1.8-2,0-4,0-6,0-.3-.3,1.1-5,1.5-6Z"/>
      <g>
        <path class="st78" d="M305.8,135.4c3.1,2.1,7.7,15.3,8.7,19.3,5.4,22.7-.5,44.1-12.2,63.6-21.6,2.9-60.3,7-78.2-7.4s-19.1-31.5-16.2-49c5.5-33.5,51.1-34.8,77.6-31,3.4.5,18.4,3.2,20.4,4.6Z"/>
        <path class="st80" d="M290.3,142.6c15.5,8.8,16,42.7,6.7,55.9-4.4,4.1-8.8,2.1-7.6-4.4,3-12.2,2.3-23.4-2.1-33.6-1.5-3.2-4.9-6.1-6-9.7-3.7-7.1,2.1-12.3,8.9-8.2Z"/>
        <path class="st12" d="M297,198.5c-1.8,2.5-3.9,4.1-6.7,1.8s-.2-12.1,0-16.3c.4-7.7.4-16.5-3-23.5.7-1.7,1.6,1.2,1.7,1.6,4.6,12.1,1.9,23.4.6,35.8.5,1.4,1.7,2.1,3.2,2.1l4.1-1.6Z"/>
        <path class="st19" d="M290.3,142.6c-7.5-2.3-11.3.3-8.9,8.2-3.5-3.5-1-10.6,4-10.4s3.3,1.3,4.9,2.2Z"/>
      </g>
    </g>
    <g>
      <path class="st60" d="M347,171.7c-6.1-13.5-5.9-28.2,0-41.7,1.6.7.2,2.3,0,3.3-4.3,12.5-3.9,22.7,0,35.2.3.9,1.7,2.5.1,3.2Z"/>
      <path class="st40" d="M433.4,176.1c-1.5-.5,0-2.2.4-3,3.8-8.2,6.2-17.3,5.6-26.4-.3-4.1-2.7-9.1-1.5-13,4.5,13.8,2.8,29.9-4.5,42.5Z"/>
      <path class="st3" d="M411,104.6c-.7,1.4-2.4.3-3.4,0-12.4-3.7-21.3-3.7-33.6.6-1,.3-2.5,1.7-3.3,0,12.5-5.9,27.5-6,40.2-.7Z"/>
      <path class="st24" d="M400.6,114.3c4.2.9,8.5,3.4,11.9,6-3.6.1-7.1-1.9-10.8-2.3-32.1-2.9-49.1,34.7-28,58.5,3.7,4.2,7.6,6,11.9,9.3-2.8-.2-5.8-.7-8.9-1.5-7.4-3.2-14.7-10.6-17.9-17.9-2.9-10.6-4.8-21.5.7-32,2.4-6.7,9.2-13.9,15.6-17.1,8.5-2.8,16.3-3.9,25.3-3Z"/>
      <path class="st69" d="M358.9,166.4c-4.3-9.7-5.2-22.8.7-32-3.7,10.2-4.1,18.4-.9,28.8.3.9,1.7,2.5.1,3.2Z"/>
      <path class="st0" d="M400.6,114.3c-2.9,1.6-6.5-.1-10,0s-8.3,1.5-12,2.9-2.5,1.7-3.3,0c7.3-3.7,17.3-4.7,25.3-3Z"/>
      <g>
        <path class="st86" d="M412.5,120.3c26.5,19.8,17,64-15.6,67.1-4,0-7.7-.5-11.2-1.5-44.1-18-17.9-85.8,26.8-65.6Z"/>
        <path class="st70" d="M385.7,185.8c3.9.7,7.9.4,11.2,1.5-6.6.6-14-.4-20.1-3,2.3-1.1,5.9,1,8.9,1.5Z"/>
        <path class="st64" d="M416,139.1c1.6,1.9,1.1,4.4-.5,6.1l-26,25.4c-3.8,2.7-15.7-10.6-16.3-12.9s1.3-6.5,4.5-6c4.6.7,6.4,9.4,11.2,7.9s17.7-18.9,22.2-21.9c1.3-1,4.1.3,5,1.3Z"/>
      </g>
    </g>
  </g>
</svg>