<?xml version="1.0" encoding="UTF-8"?>
<!DOCTYPE svg PUBLIC "-//W3C//DTD SVG 1.1//EN" "http://www.w3.org/Graphics/SVG/1.1/DTD/svg11.dtd">
<!-- Creator: CorelDRAW 2020 (64-Bit) -->
<svg xmlns="http://www.w3.org/2000/svg" xml:space="preserve" width="31.25in" height="31.25in" version="1.1" style="shape-rendering:geometricPrecision; text-rendering:geometricPrecision; image-rendering:optimizeQuality; fill-rule:evenodd; clip-rule:evenodd"
viewBox="0 0 31249.99 31249.99"
 xmlns:xlink="http://www.w3.org/1999/xlink"
 xmlns:xodm="http://www.corel.com/coreldraw/odm/2003">
 <defs>
  <style type="text/css">
   <![CDATA[
    .fil1 {fill:#373F47}
    .fil0 {fill:#373F47;fill-rule:nonzero}
   ]]>
  </style>
 </defs>
 <g id="Layer_x0020_1">
  <metadata id="CorelCorpID_0Corel-Layer"/>
  <g id="Targeting_x0020_Icon_x0020_Complete">
   <g id="Board">
    <path class="fil0" d="M24651.92 15630.2c0,6165.81 -4998.69,11164.5 -11164.5,11164.5 -6166.3,0 -11164.5,-4998.69 -11164.5,-11164.5 0,-6165.89 4998.2,-11164.5 11164.5,-11164.5 4265.26,0 7971.45,2392.31 9851.35,5908.02l-1687.44 770.41c-1584.74,-2877.82 -4646.41,-4827.9 -8163.9,-4827.9 -5144.07,0 -9313.97,4169.89 -9313.97,9313.97 0,5143.98 4169.89,9314.01 9313.97,9314.01 5143.99,0 9314.01,-4170.02 9314.01,-9314.01 0,-912.72 -131.77,-1794.59 -376.6,-2628.04l1721.82 -702.17c328.43,1051.69 505.28,2170.31 505.28,3330.21z"/>
    <path class="fil0" d="M20950.98 15630.2c0,4121.96 -3341.61,7463.57 -7463.57,7463.57 -4122.12,0 -7463.57,-3341.61 -7463.57,-7463.57 0,-4121.92 3341.45,-7463.57 7463.57,-7463.57 2769.48,0 5186.68,1508.52 6474.76,3748.67l-1574.7 718.92c-1009.5,-1647.48 -2826.37,-2746.78 -4900.07,-2746.78 -3171.71,0 -5742.75,2571.19 -5742.75,5742.75 0,3171.59 2571.04,5742.75 5742.75,5742.75 3171.59,0 5742.75,-2571.17 5742.75,-5742.75 0,-435.68 -48.79,-859.91 -140.8,-1267.79l1610.58 -656.82c163.45,614.08 251.04,1259.07 251.04,1924.61z"/>
    <path class="fil0" d="M17728.8 15630.2c0,2342.43 -1898.96,4241.39 -4241.39,4241.39 -2342.52,0 -4241.39,-1898.96 -4241.39,-4241.39 0,-2342.39 1898.87,-4241.39 4241.39,-4241.39 1522.12,0 2856.94,801.89 3605.19,2006.17l-899.27 410.56c-586.5,-868.03 -1579.5,-1438.83 -2705.93,-1438.83 -1802.41,0 -3263.49,1461.15 -3263.49,3263.49 0,1802.34 1461.07,3263.49 3263.49,3263.49 1802.34,0 3263.49,-1461.15 3263.49,-3263.49 0,-152.62 -10.54,-302.78 -30.86,-449.81l927.7 -378.33c53.1,267.84 81.05,544.69 81.05,828.14z"/>
   </g>
   <polygon id="Arrow" class="fil1" points="14039.19,15122.86 24976.71,10129.35 25024.52,9483.26 27953.96,8217.85 27187.26,9871.31 28916.67,10446.52 25987.23,11711.94 25484.03,11303.85 14350.76,15844.15 "/>
  </g>
 </g>
</svg>
